<?xml version="1.0" standalone="no"?>
<!DOCTYPE svg PUBLIC "-//W3C//DTD SVG 1.1//EN" "http://www.w3.org/Graphics/SVG/1.1/DTD/svg11.dtd" >
<svg xmlns="http://www.w3.org/2000/svg" xmlns:xlink="http://www.w3.org/1999/xlink" version="1.1">
<metadata>
Created by FontForge 20201107 at Sat Sep 18 13:38:48 2010
 By 
2009
</metadata>
<defs>
<font id="HighwayGothicExpanded" horiz-adv-x="635" >
  <font-face 
    font-family="Highway Gothic Expanded"
    font-weight="400"
    font-stretch="normal"
    units-per-em="1000"
    panose-1="0 0 4 0 0 0 0 0 0 0"
    ascent="800"
    descent="-200"
    x-height="489"
    cap-height="670"
    bbox="-38 -242 1199 865"
    underline-thickness="20"
    underline-position="-143"
    unicode-range="U+0020-2122"
  />
<missing-glyph horiz-adv-x="500" 
d="M63 0v800h375v-800h-375zM125 63h250v675h-250v-675z" />
    <glyph glyph-name=".notdef" horiz-adv-x="500" 
d="M63 0v800h375v-800h-375zM125 63h250v675h-250v-675z" />
    <glyph glyph-name=".null" horiz-adv-x="0" 
 />
    <glyph glyph-name="nonmarkingreturn" horiz-adv-x="0" 
 />
    <glyph glyph-name="space" unicode=" " horiz-adv-x="325" 
 />
    <glyph glyph-name="space" unicode="&#xa0;" horiz-adv-x="325" 
 />
    <glyph glyph-name="exclam" unicode="!" horiz-adv-x="245" 
d="M189 670v-251l-33 -239h-66l-35 239v251h134zM189 54q0 -27 -20 -46.5t-48 -19.5q-27 0 -46.5 20t-19.5 46q0 28 19.5 48t46.5 20q28 0 48 -20t20 -48z" />
    <glyph glyph-name="quotedbl" unicode="&#x22;" horiz-adv-x="495" 
d="M417 670l-18 -268h-90l-21 268h129zM208 670l-21 -268h-87l-21 268h129z" />
    <glyph glyph-name="numbersign" unicode="#" horiz-adv-x="611" 
d="M599 493l-16 -103h-104l-14 -99h104l-14 -101h-106l-31 -190h-120l33 190h-98l-31 -190h-115l30 190h-103l14 101h106l14 99h-103l16 103h103l29 177h115l-31 -177h101l31 177h115l-28 -177h103zM364 390h-101l-14 -99h99z" />
    <glyph glyph-name="dollar" unicode="$" horiz-adv-x="755" 
d="M439 -1v-114h-122v114h122zM439 752v-114h-122v114h122zM691 200q-1 -98 -77.5 -155t-216.5 -57q-193 0 -333 101l73 104q111 -76 256 -77q89 3 131.5 25t43.5 60q3 37 -42 60.5t-141 33.5q-169 18 -226 68.5t-56 130.5q2 86 82 135.5t196 51.5q136 0 268 -79l-70 -102
q-89 52 -207 52q-51 1 -96.5 -12t-43.5 -46q-2 -30 39 -47.5t140 -27.5q156 -14 218 -79t62 -140z" />
    <glyph glyph-name="percent" unicode="%" horiz-adv-x="475" 
d="M434 98h-36q1 25 -17.5 43t-44.5 18t-44.5 -17.5t-18.5 -43.5q0 -25 18.5 -43.5t44.5 -18.5t44.5 18.5t17.5 43.5h36q0 -40 -29 -69t-69 -29t-68.5 29t-28.5 69q0 41 28 69t69 28q39 0 68.5 -28.5t29.5 -68.5zM233 573h-36q1 25 -17.5 43t-44.5 18t-44.5 -17.5
t-18.5 -43.5q0 -25 18.5 -43.5t44.5 -18.5t44.5 18.5t17.5 43.5h36q0 -40 -29 -69t-69 -29t-68.5 29t-28.5 69q0 41 28 69t69 28q39 0 68.5 -28.5t29.5 -68.5zM451 670l-383 -670h-44l384 670h43z" />
    <glyph glyph-name="ampersand" unicode="&#x26;" horiz-adv-x="665" 
d="M410 516q-50 57 -114 62q-29 1 -49 -12.5t-20 -40.5q-2 -31 28 -68l197 -240q30 40 29 91h100q1 -97 -55 -174l99 -134h-141l-34 42q-44 -32 -92 -43t-98 -11q-101 0 -159.5 52.5t-62.5 143.5q-1 166 117 229q-41 58 -44 116q-1 56 44 103.5t136 48.5q116 -7 188 -96z
M372 122l-161 199q-38 -24 -55 -62t-13 -71q3 -37 29.5 -65t85.5 -30q63 -4 114 29z" />
    <glyph glyph-name="quotesingle" unicode="'" horiz-adv-x="295" 
d="M212 670l-21 -268h-87l-21 268h129z" />
    <glyph glyph-name="parenleft" unicode="(" horiz-adv-x="285" 
d="M244 -77h-87q-115 162 -115 385q0 218 115 380h87q-38 -61 -61 -106q-54 -115 -54 -277q0 -144 59 -279q16 -36 56 -103z" />
    <glyph glyph-name="parenright" unicode=")" horiz-adv-x="285" 
d="M42 -77q40 67 56 103q59 135 59 279q0 162 -54 277q-23 45 -61 106h87q115 -162 115 -380q0 -223 -115 -385h-87v0z" />
    <glyph glyph-name="asterisk" unicode="*" horiz-adv-x="475" 
d="M421 496l-108 -23l77 -71l-89 -68l-62 92l-60 -90l-92 63l74 74l-107 25l31 104l108 -39l-14 107h122l-15 -110l104 39z" />
    <glyph glyph-name="plus" unicode="+" horiz-adv-x="475" 
d="M449 282h-154v-153h-116v153h-153v120h153v150h116v-150h154v-120z" />
    <glyph glyph-name="comma" unicode="," horiz-adv-x="235" 
d="M184 54q-1 -54 -31.5 -102t-88.5 -64v21q47 24 59 79h-7q-27 0 -46.5 20t-19.5 46q0 28 19.5 48t46.5 20q28 0 48 -20t20 -48z" />
    <glyph glyph-name="comma" unicode="&#x201a;" horiz-adv-x="235" 
d="M184 54q-1 -54 -31.5 -102t-88.5 -64v21q47 24 59 79h-7q-27 0 -46.5 20t-19.5 46q0 28 19.5 48t46.5 20q28 0 48 -20t20 -48z" />
    <glyph glyph-name="hyphen" unicode="-" horiz-adv-x="275" 
d="M248 282h-222v120h222v-120z" />
    <glyph glyph-name="hyphen" unicode="&#xad;" horiz-adv-x="275" 
d="M248 282h-222v120h222v-120z" />
    <glyph glyph-name="period" unicode="." horiz-adv-x="235" 
d="M184 54q0 -27 -20 -46.5t-48 -19.5q-27 0 -46.5 20t-19.5 46q0 28 19.5 48t46.5 20q28 0 48 -20t20 -48z" />
    <glyph glyph-name="slash" unicode="/" horiz-adv-x="575" 
d="M575 670l-462 -670h-113l457 670h118z" />
    <glyph glyph-name="zero" unicode="0" horiz-adv-x="815" 
d="M758 338q0 -144 -103.5 -247t-246.5 -103t-246.5 103t-103.5 245q0 146 101 245.5t249 99.5q140 0 245 -102t105 -241zM631 338q0 88 -65.5 151t-157.5 63t-157.5 -62t-65.5 -152q0 -91 65.5 -156t157.5 -65t157.5 65t65.5 156z" />
    <glyph glyph-name="one" unicode="1" horiz-adv-x="415" 
d="M318 0h-127v491h-94v102q84 18 125 77h96v-670z" />
    <glyph glyph-name="two" unicode="2" horiz-adv-x="765" 
d="M697 0h-629q51 255 357 371q72 24 112 49.5t35 59.5q0 31 -45.5 53.5t-106.5 22.5q-136 -6 -262 -91l-89 89q157 123 351 127q113 0 195 -52t82 -148q0 -85 -73 -143t-170 -89q-127 -46 -183 -122h426v-127z" />
    <glyph glyph-name="three" unicode="3" horiz-adv-x="765" 
d="M697 207q0 -107 -91 -169q-73 -50 -206 -50q-84 0 -174 29t-158 87l96 96q48 -37 111 -59t121 -25q86 -1 131.5 24.5t45.5 70.5t-35 67.5t-78 22.5h-73v127h73q73 0 73 54q0 37 -38.5 53.5t-102.5 18.5q-117 1 -195 -54l-85 85q125 96 280 96q116 0 190.5 -55t74.5 -140
q1 -80 -58 -123q96 -44 98 -156z" />
    <glyph glyph-name="four" unicode="4" horiz-adv-x="815" 
d="M748 127h-82v-127h-124v127h-475v122l475 421h124v-421h82v-122zM542 249v259l-297 -259h297z" />
    <glyph glyph-name="five" unicode="5" horiz-adv-x="765" 
d="M696 230q-1 -93 -74 -167.5t-234 -74.5q-173 0 -327 61l58 115q133 -49 270 -49q96 0 139.5 33t43.5 82q3 44 -42 78t-139 35q-88 1 -180 -33l-120 30l18 330h526v-127h-409l-5 -98q68 25 167 25q150 0 229 -72t79 -168z" />
    <glyph glyph-name="six" unicode="6" horiz-adv-x="765" 
d="M67 278q0 166 119.5 282.5t285.5 116.5q58 0 128 -26l-52 -112q-33 16 -79 16q-79 -1 -155 -55t-101 -127q79 32 186 32q134 0 216 -56.5t82 -148.5q0 -113 -107 -169q-85 -45 -210 -45q-313 0 -313 292zM206 193q0 -35 51.5 -57.5t129.5 -22.5q86 0 134.5 22t48.5 60
q0 39 -48.5 61t-134.5 22q-82 0 -131.5 -20.5t-49.5 -64.5z" />
    <glyph glyph-name="seven" unicode="7" horiz-adv-x="765" 
d="M697 548q-223 -266 -247 -548h-125q26 299 215 543h-473v127h630v-122z" />
    <glyph glyph-name="eight" unicode="8" horiz-adv-x="765" 
d="M697 211q0 -59 -34 -111.5t-91 -80.5q-61 -31 -193 -31q-162 0 -232 54q-80 62 -80 165q1 97 89 155q-57 41 -59 129q0 88 76.5 139t205.5 51q128 0 207.5 -52.5t79.5 -139.5q-1 -89 -56 -128q87 -45 87 -150zM541 495q1 32 -39 48t-121 17q-77 0 -118 -16.5t-41 -48.5
q-1 -34 38.5 -49.5t118.5 -15.5q89 -1 126.5 16t35.5 49zM572 211q0 42 -52.5 67t-137.5 25q-90 0 -140.5 -25t-50.5 -71q0 -41 47.5 -65.5t143.5 -24.5q97 0 144 24t46 70z" />
    <glyph glyph-name="nine" unicode="9" horiz-adv-x="765" 
d="M697 385q0 -166 -119.5 -282.5t-285.5 -116.5q-58 0 -128 26l52 112q33 -16 79 -16q79 1 155 55t101 127q-79 -32 -186 -32q-134 0 -216 56.5t-82 148.5q0 113 107 169q85 45 210 45q313 0 313 -292zM558 470q0 35 -51.5 57.5t-129.5 22.5q-86 0 -134.5 -22t-48.5 -60
q0 -39 48.5 -61t134.5 -22q82 0 131.5 20.5t49.5 64.5z" />
    <glyph glyph-name="colon" unicode=":" horiz-adv-x="235" 
d="M184 432q0 -27 -20 -46.5t-48 -19.5q-27 0 -46.5 19.5t-19.5 46.5q0 28 19.5 48t46.5 20q28 0 48 -20t20 -48zM184 54q0 -27 -20 -46.5t-48 -19.5q-27 0 -46.5 20t-19.5 46q0 28 19.5 48t46.5 20q28 0 48 -20t20 -48z" />
    <glyph glyph-name="semicolon" unicode=";" horiz-adv-x="235" 
d="M184 432q0 -27 -20 -46.5t-48 -19.5q-27 0 -46.5 19.5t-19.5 46.5q0 28 19.5 48t46.5 20q28 0 48 -20t20 -48zM184 54q-1 -54 -31.5 -102t-88.5 -64v21q47 24 59 79h-7q-27 0 -46.5 20t-19.5 46q0 28 19.5 48t46.5 20q28 0 48 -20t20 -48z" />
    <glyph glyph-name="less" unicode="&#x3c;" horiz-adv-x="584" 
d="M55 313v82l474 200v-87l-376 -154l376 -156v-88z" />
    <glyph glyph-name="equal" unicode="=" horiz-adv-x="475" 
d="M456 376h-435v120h435v-120zM456 183h-435v120h435v-120z" />
    <glyph glyph-name="greater" unicode="&#x3e;" horiz-adv-x="584" 
d="M55 110v88l376 156l-376 154v87l474 -200v-82z" />
    <glyph glyph-name="question" unicode="?" horiz-adv-x="675" 
d="M621 482q0 -79 -91 -151q-91 -77 -119 -148h-118q22 110 127 197q75 66 74 95q2 39 -42.5 59.5t-103.5 21.5q-117 -1 -205 -70l-88 88q130 107 291 107q125 0 200 -54t75 -145zM414 54q0 -27 -20 -46.5t-48 -19.5q-27 0 -46.5 20t-19.5 46q0 28 19.5 48t46.5 20
q28 0 48 -20t20 -48z" />
    <glyph glyph-name="at" unicode="@" horiz-adv-x="705" 
d="M500 245q-2 -30 25 -30q32 0 62 52.5t30 111.5q0 103 -68 167t-177 64q-117 0 -196.5 -81.5t-79.5 -200.5q0 -118 74.5 -195t201.5 -77q107 0 191 36l19 -71q-87 -35 -207 -35q-157 0 -255.5 91t-98.5 252q0 148 100 250t244 102q140 0 229 -84t89 -214
q0 -92 -48.5 -162.5t-113.5 -70.5q-58 -1 -85 45q-42 -25 -98 -25q-66 0 -100.5 32t-34.5 82q0 52 38 87t97 35q40 0 76 -11q2 44 -59 44q-47 0 -91 -23l-35 70q67 35 126 35q145 0 145 -140v-136zM414 268v48q-41 11 -76 11q-21 0 -36 -11t-15 -27t17.5 -27.5t41.5 -11.5
q36 0 68 18z" />
    <glyph glyph-name="A" unicode="A" horiz-adv-x="815" 
d="M788 0h-141l-68 146h-341l-70 -146h-141l317 670h127zM518 275l-110 233l-111 -233h221z" />
    <glyph glyph-name="B" unicode="B" horiz-adv-x="775" 
d="M703 204q0 -96 -61.5 -150t-157.5 -54h-411v670h411q80 0 133 -51t53 -128q0 -99 -71 -137q104 -47 104 -150zM544 482q-3 30 -20.5 46t-39.5 15h-284v-125h284q22 -1 40.5 16.5t19.5 47.5zM571 205q1 39 -26.5 63t-60.5 23h-284v-164h284q35 -1 61 21t26 57z" />
    <glyph glyph-name="C" unicode="C" horiz-adv-x="745" 
d="M688 140q-111 -152 -287 -152q-143 0 -244 101.5t-101 244.5q0 146 101.5 246.5t248.5 100.5q178 -4 280 -148l-104 -72q-74 91 -181 91q-91 0 -154.5 -63t-63.5 -153q0 -92 63.5 -155.5t154.5 -63.5q101 0 181 92z" />
    <glyph glyph-name="D" unicode="D" horiz-adv-x="785" 
d="M708 336q0 -139 -98.5 -237.5t-237.5 -98.5h-294v670h294q139 0 237.5 -98t98.5 -236zM579 336q0 85 -60.5 146t-146.5 61h-167v-416h167q86 0 146.5 61t60.5 148z" />
    <glyph glyph-name="E" unicode="E" horiz-adv-x="705" 
d="M624 0h-543v670h533v-127h-406v-122h235v-130h-235v-164h416v-127z" />
    <glyph glyph-name="F" unicode="F" horiz-adv-x="705" 
d="M624 543h-416v-122h249v-130h-249v-291h-127v670h543v-127z" />
    <glyph glyph-name="G" unicode="G" horiz-adv-x="745" 
d="M686 291q0 -125 -88.5 -214t-216.5 -89q-144 0 -238 104q-84 93 -84 242q0 155 94.5 251t246.5 96q102 0 178 -51q46 -31 96 -97l-105 -72q-66 91 -172 91q-97 0 -154 -59.5t-57 -161.5q0 -95 53.5 -154.5t141.5 -59.5t138 62q20 23 33 58h-150v130h284v-76z" />
    <glyph glyph-name="H" unicode="H" horiz-adv-x="815" 
d="M721 0h-124v291h-376v-291h-127v670h127v-249h376v249h124v-670z" />
    <glyph glyph-name="I" unicode="I" horiz-adv-x="315" 
d="M221 0h-127v670h127v-670z" />
    <glyph glyph-name="J" unicode="J" horiz-adv-x="685" 
d="M631 290q-4 -140 -86.5 -221t-197.5 -81q-195 1 -293 214l129 39q59 -123 166 -123q68 0 112 47.5t44 122.5v383h126v-381z" />
    <glyph glyph-name="K" unicode="K" horiz-adv-x="745" 
d="M686 0h-145l-205 343l-150 -155v-188h-127v670h127v-296l280 296h171l-211 -231z" />
    <glyph glyph-name="L" unicode="L" horiz-adv-x="705" 
d="M624 0h-543v670h127v-543h416v-127z" />
    <glyph glyph-name="M" unicode="M" horiz-adv-x="905" 
d="M815 0h-127v397l-235 -397l-237 397v-397h-125v670h117l245 -422l242 422h120v-670z" />
    <glyph glyph-name="N" unicode="N" horiz-adv-x="815" 
d="M723 0h-127l-376 463v-463h-127v670h125l376 -468v468h129v-670z" />
    <glyph glyph-name="O" unicode="O" horiz-adv-x="815" 
d="M758 338q0 -144 -103.5 -247t-246.5 -103t-246.5 103t-103.5 245q0 146 101 245.5t249 99.5q140 0 245 -102t105 -241zM631 338q0 88 -65.5 151t-157.5 63t-157.5 -62t-65.5 -152q0 -91 65.5 -156t157.5 -65t157.5 65t65.5 156z" />
    <glyph glyph-name="P" unicode="P" horiz-adv-x="775" 
d="M487 251h-282v-251h-127v670h409q88 0 149.5 -61.5t61.5 -147.5q0 -84 -61.5 -147t-149.5 -63zM571 461q0 33 -24.5 57.5t-59.5 24.5h-282v-165h282q35 0 59.5 24.5t24.5 58.5z" />
    <glyph glyph-name="Q" unicode="Q" horiz-adv-x="825" 
d="M764 336q0 -158 -109 -255l59 -74l-102 -77l-63 86q-58 -28 -137 -28q-144 0 -247 102.5t-103 245.5t102.5 244t247.5 101q146 0 249 -101t103 -244zM638 336q0 90 -66.5 153t-159.5 63q-92 0 -157.5 -63t-65.5 -153q0 -91 65.5 -155t157.5 -64q42 0 62 10l-63 83l103 72
l67 -87q57 52 57 141z" />
    <glyph glyph-name="R" unicode="R" horiz-adv-x="785" 
d="M708 0h-148l-148 251h-207v-251h-127v670h409q88 0 149.5 -61.5t61.5 -147.5q0 -67 -39 -121t-104 -77zM571 461q0 33 -24.5 57.5t-59.5 24.5h-282v-165h282q35 0 59.5 24.5t24.5 58.5z" />
    <glyph glyph-name="S" unicode="S" horiz-adv-x="755" 
d="M691 200q-1 -98 -77.5 -155t-216.5 -57q-193 0 -333 101l73 104q111 -76 256 -77q89 3 131.5 25t43.5 60q3 37 -42 60.5t-141 33.5q-169 18 -226 68.5t-56 130.5q2 86 82 135.5t196 51.5q136 0 268 -79l-70 -102q-89 52 -207 52q-51 1 -96.5 -12t-43.5 -46
q-2 -30 39 -47.5t140 -27.5q156 -14 218 -79t62 -140z" />
    <glyph glyph-name="T" unicode="T" horiz-adv-x="705" 
d="M640 543h-225v-543h-127v543h-224v127h576v-127z" />
    <glyph glyph-name="U" unicode="U" horiz-adv-x="815" 
d="M721 317q0 -106 -40.5 -175t-114.5 -111.5t-157 -42.5t-158 42.5t-115 112.5q-42 75 -42 174v353h127v-353q0 -62 26 -108q24 -42 68 -67t94 -25q49 0 92.5 25t67.5 67q26 46 26 108v353h126v-353z" />
    <glyph glyph-name="V" unicode="V" horiz-adv-x="755" 
d="M727 670l-272 -670h-156l-272 670h136l214 -515l209 515h141z" />
    <glyph glyph-name="W" unicode="W" horiz-adv-x="835" 
d="M808 670l-141 -670h-136l-115 418l-115 -418h-134l-141 670h129l87 -409l113 409h124l113 -409l87 409h129z" />
    <glyph glyph-name="X" unicode="X" horiz-adv-x="735" 
d="M708 0h-157l-183 242l-184 -242h-157l261 348l-240 322h157l163 -214l162 214h157l-240 -322z" />
    <glyph glyph-name="Y" unicode="Y" horiz-adv-x="815" 
d="M788 670l-317 -400v-270h-127v270l-317 400h162l219 -275l218 275h162z" />
    <glyph glyph-name="Z" unicode="Z" horiz-adv-x="755" 
d="M691 0h-627v127l442 416h-421v127h606v-127l-441 -416h441v-127z" />
    <glyph glyph-name="bracketleft" unicode="[" horiz-adv-x="275" 
d="M38 692h198v-73h-128v-709h128v-73h-198v855z" />
    <glyph glyph-name="backslash" unicode="\" horiz-adv-x="575" 
d="M118 670l457 -670h-113l-462 670h118z" />
    <glyph glyph-name="bracketright" unicode="]" horiz-adv-x="275" 
d="M236 -163h-198v73h128v709h-128v73h198v-855z" />
    <glyph glyph-name="asciicircum" unicode="^" horiz-adv-x="475" 
d="M120 337h-91l173 391h71l173 -391h-89l-120 291z" />
    <glyph glyph-name="underscore" unicode="_" horiz-adv-x="556" 
d="M-15 -199v64h582v-64h-582z" />
    <glyph glyph-name="grave" unicode="`" horiz-adv-x="245" 
d="M145 533l-122 137h130l69 -137h-77z" />
    <glyph glyph-name="a" unicode="a" 
d="M571 0h-130v23q-62 -30 -157 -32q-100 0 -160.5 45.5t-60.5 116.5q0 74 67 122.5t168 48.5q71 0 145 -17q0 35 -27 58t-85 23q-92 0 -169 -43l-48 95q90 57 217 61q115 -4 177 -56.5t63 -148.5v-296zM439 128v69q-76 14 -146 15q-49 -1 -84 -15.5t-34 -44.5
q-2 -32 32.5 -45.5t81.5 -13.5q82 2 150 35z" />
    <glyph glyph-name="b" unicode="b" horiz-adv-x="665" 
d="M598 244q0 -107 -76 -180t-187 -73q-36 0 -78.5 10.5t-60.5 24.5v-26h-129v616l129 65v-218q56 33 136 33q113 0 189.5 -73t76.5 -179zM471 244q0 65 -43 100q-39 31 -100 31q-77 0 -132 -46v-169q50 -48 126 -48q62 0 103 33q46 37 46 99z" />
    <glyph glyph-name="c" unicode="c" horiz-adv-x="575" 
d="M523 80q-80 -89 -206 -89q-111 0 -188.5 74t-77.5 179q0 106 77 179t189 73q126 0 207 -100l-80 -80q-49 60 -127 60q-55 0 -96 -37.5t-41 -94.5q0 -58 41 -94.5t96 -36.5q70 -1 123 50z" />
    <glyph glyph-name="d" unicode="d" horiz-adv-x="665" 
d="M598 0h-127q0 26 -2 26q-18 -13 -61 -24t-75 -11q-113 0 -189.5 73t-76.5 180q0 106 77.5 179t190.5 73q78 0 134 -33v154l129 64v-681zM469 329q-55 46 -132 46q-61 0 -99 -31q-44 -35 -44 -100q0 -62 46 -99q41 -33 103 -33q76 0 126 48v169z" />
    <glyph glyph-name="e" unicode="e" 
d="M584 198h-405q6 -32 44 -61.5t93 -29.5q67 -3 116 36l84 -84q-89 -68 -199 -68q-111 0 -188.5 75t-77.5 181t77 179t189 73q117 0 191 -86t76 -215zM443 310q-12 27 -47 50t-81 23q-50 -1 -87 -24t-45 -49h260z" />
    <glyph glyph-name="f" unicode="f" horiz-adv-x="355" 
d="M322 371h-87v-371h-129v371h-73v115h73v65q-3 48 38.5 89t107.5 41q37 0 70 -18v-97q-23 7 -42 7q-45 0 -45 -44v-43h87v-115z" />
    <glyph glyph-name="g" unicode="g" horiz-adv-x="665" 
d="M598 486v-486q-9 -183 -246 -242l-25 121q137 28 142 121v23q-62 -32 -134 -32q-113 0 -190.5 73t-77.5 180q0 110 72.5 181.5t197.5 70.5q86 -1 132 -35v25h129zM469 157v177q-65 40 -134 40q-61 0 -100 -32q-41 -36 -41 -100q0 -63 44 -98q40 -32 100 -32q76 0 131 45z
" />
    <glyph glyph-name="h" unicode="h" 
d="M567 0h-127v270q0 47 -33.5 81t-88.5 34q-48 1 -84.5 -31.5t-37.5 -87.5v-266h-127v637l127 44v-232q53 49 138 49q108 -2 170.5 -73t62.5 -155v-270z" />
    <glyph glyph-name="i" unicode="i" horiz-adv-x="285" 
d="M206 618q0 -29 -20 -46q-20 -18 -44 -18q-25 0 -44 17q-19 18 -19 47q0 26 18 44q19 19 45 19q24 0 44 -18q20 -17 20 -45zM206 0h-127v489h127v-489z" />
    <glyph glyph-name="j" unicode="j" horiz-adv-x="285" 
d="M206 618q0 -29 -20 -46q-20 -18 -44 -18q-25 0 -44 17q-19 18 -19 47q0 26 18 44q19 19 45 19q24 0 44 -18q20 -17 20 -45zM206 0q-10 -169 -176 -242l-53 107q86 50 102 135v489h127v-489z" />
    <glyph glyph-name="k" unicode="k" horiz-adv-x="565" 
d="M517 0h-141l-116 233l-84 -90v-143h-127v617l127 64v-361l157 166h176l-154 -161z" />
    <glyph glyph-name="l" unicode="l" horiz-adv-x="285" 
d="M206 0h-127v618l127 63v-681z" />
    <glyph glyph-name="m" unicode="m" horiz-adv-x="935" 
d="M861 0h-127v270q1 48 -28 79.5t-70 31.5q-44 0 -75.5 -29t-30.5 -82v-270h-125v270q0 50 -30.5 80.5t-75.5 30.5q-43 0 -70 -29t-28 -82v-270h-127v489h127v-35q50 44 135 44q89 0 145 -70q60 70 163 70q99 -2 158 -65t59 -163v-270z" />
    <glyph glyph-name="n" unicode="n" 
d="M567 0h-127v270q0 47 -33.5 81t-88.5 34q-48 1 -84.5 -31.5t-37.5 -87.5v-266h-127v489h127v-40q53 49 138 49q108 -2 170.5 -73t62.5 -155v-270z" />
    <glyph glyph-name="o" unicode="o" 
d="M584 244q0 -107 -77 -180t-190 -73q-111 0 -188.5 74t-77.5 179q0 106 77 179t189 73t189.5 -73t77.5 -179zM455 244q0 57 -42 94.5t-96 37.5q-55 0 -96 -37.5t-41 -94.5q0 -58 41 -94.5t96 -36.5q54 0 96 37.5t42 93.5z" />
    <glyph glyph-name="p" unicode="p" horiz-adv-x="665" 
d="M598 244q0 -107 -76.5 -180t-189.5 -73q-74 0 -136 32v-201l-129 -64v728h129v-25q16 12 52 22q41 12 80 13q125 1 199 -72q71 -70 71 -180zM471 242q0 64 -45 100q-40 33 -102 33q-75 0 -128 -46v-172q55 -44 131 -44q61 0 100 31q44 35 44 98z" />
    <glyph glyph-name="q" unicode="q" horiz-adv-x="665" 
d="M598 486v-664l-129 -64v265q-62 -32 -134 -32q-113 0 -190.5 73t-77.5 180q0 110 72.5 181.5t197.5 70.5q86 -1 132 -35v25h129zM469 157v177q-65 40 -134 40q-61 0 -100 -32q-41 -36 -41 -100q0 -63 44 -98q40 -32 100 -32q76 0 131 45z" />
    <glyph glyph-name="r" unicode="r" horiz-adv-x="455" 
d="M430 460l-57 -114q-25 31 -67 31q-43 0 -70.5 -32.5t-26.5 -75.5v-269h-129v489h129v-40q39 47 111 47q63 0 110 -36z" />
    <glyph glyph-name="s" unicode="s" horiz-adv-x="585" 
d="M542 144q-1 -76 -62.5 -114.5t-187.5 -38.5q-136 0 -252 59l51 101q97 -48 201 -50q87 2 106.5 11t20.5 31q-2 22 -22.5 31.5t-102.5 18.5q-107 10 -168.5 48t-60.5 104q-2 64 59.5 108.5t167.5 44.5q116 0 225 -56l-49 -97q-73 38 -176 41q-77 -4 -93 -12t-16 -25
q-1 -16 17 -23.5t95 -15.5q128 -11 187 -50.5t60 -115.5z" />
    <glyph glyph-name="t" unicode="t" horiz-adv-x="415" 
d="M364 137l-41 -136q-33 -13 -64 -13q-58 0 -93.5 45t-35.5 106v235h-80v112h80v132l127 63v-195h108v-114h-108v-209q1 -25 12.5 -39.5t31.5 -14.5q32 2 63 28z" />
    <glyph glyph-name="u" unicode="u" 
d="M69 489h127v-270q0 -47 33.5 -81t88.5 -34q48 -1 84.5 31.5t37.5 87.5v266h127v-489h-127v40q-53 -49 -138 -49q-108 2 -170.5 73t-62.5 155v270z" />
    <glyph glyph-name="v" unicode="v" horiz-adv-x="595" 
d="M578 489l-209 -489h-146l-207 489h139l141 -332l148 332h134z" />
    <glyph glyph-name="w" unicode="w" horiz-adv-x="795" 
d="M782 489l-165 -489h-139l-82 296l-80 -296h-138l-165 489h132l98 -282l78 282h153l77 -285l94 285h137z" />
    <glyph glyph-name="x" unicode="x" horiz-adv-x="615" 
d="M600 0h-160l-131 169l-132 -169h-162l212 275l-165 214h162l85 -108l82 108h162l-164 -214z" />
    <glyph glyph-name="y" unicode="y" horiz-adv-x="645" 
d="M630 489l-321 -731h-152l106 242l-249 489h149l171 -336l152 336h144z" />
    <glyph glyph-name="z" unicode="z" horiz-adv-x="585" 
d="M547 0h-510v98l309 273h-293v118h494v-103l-312 -271h312v-115z" />
    <glyph glyph-name="braceleft" unicode="{" horiz-adv-x="335" 
d="M26 299q76 2 93 73q7 34 8 115q0 37 3 108q11 106 91 128q17 5 60 5h28v-77h-16q-54 0 -70 -23q-14 -19 -14 -77q0 -129 -5 -161q-8 -51 -29.5 -80t-67.5 -51q65 -27 87 -90q15 -44 15 -130q0 -96 2 -113q5 -37 25 -50q17 -10 57 -10h16v-76h-28q-47 0 -69 7
q-66 24 -79 100q-3 24 -3 102t-6 116q-9 61 -37 84q-24 19 -61 20v80z" />
    <glyph glyph-name="bar" unicode="|" horiz-adv-x="205" 
d="M77 -210v938h50v-938h-50z" />
    <glyph glyph-name="braceright" unicode="}" horiz-adv-x="335" 
d="M309 219q-37 -1 -61 -20q-28 -23 -37 -84q-6 -38 -6 -116t-3 -102q-13 -76 -79 -100q-22 -7 -69 -7h-28v76h16q40 0 57 10q20 13 25 50q2 17 2 113q0 86 15 130q22 63 87 90q-46 22 -67.5 51t-29.5 80q-5 32 -5 161q0 58 -14 77q-16 23 -70 23h-16v77h28q43 0 60 -5
q80 -22 91 -128q3 -71 3 -108q1 -81 8 -115q17 -71 93 -73v-80z" />
    <glyph glyph-name="asciitilde" unicode="~" horiz-adv-x="584" 
d="M42 272v100q52 59 136 59q53 0 154 -43q54 -23 84 -23q65 0 126 67v-103q-59 -56 -135 -56q-52 0 -141 40q-58 25 -96 25q-59 0 -128 -66z" />
    <glyph glyph-name="exclamdown.001" unicode="&#xa1;" horiz-adv-x="245" 
d="M55 -12v251l33 239h66l35 -239v-251h-134zM55 604q0 27 20 46.5t48 19.5q27 0 46.5 -20t19.5 -46q0 -28 -19.5 -48t-46.5 -20q-28 0 -48 20t-20 48z" />
    <glyph glyph-name="cent.001" unicode="&#xa2;" horiz-adv-x="575" 
d="M523 168q-80 -89 -206 -89q-111 0 -188.5 74t-77.5 179q0 106 77 179t189 73q126 0 207 -100l-80 -80q-49 60 -127 60q-55 0 -96 -37.5t-41 -94.5q0 -58 41 -94.5t96 -36.5q70 -1 123 50zM276 0v670h76v-670h-76z" />
    <glyph glyph-name="sterling" unicode="&#xa3;" horiz-adv-x="725" 
d="M110 407h62v46q-1 82 67.5 153.5t189.5 75.5q150 -2 247 -111l-86 -86q-62 67 -158 67q-52 0 -86.5 -29t-33.5 -68v-48h189v-99h-189v-71q-6 -74 -61 -117h424v-120h-625v119h12q95 44 110 135v54h-62v99z" />
    <glyph glyph-name="currency" unicode="&#xa4;" horiz-adv-x="555" 
d="M105 469l-68 67l56 58l68 -68q52 35 116 35t116 -35l67 68l57 -58l-68 -67q35 -53 35 -115q0 -61 -35 -115l68 -66l-57 -58l-67 68q-52 -36 -116 -36t-116 36l-68 -68l-56 58l68 66q-35 54 -35 115q0 62 35 115zM150 354q0 -52 37 -89t89 -37q53 0 90 37t37 89
q0 53 -37 90t-90 37q-52 0 -89 -37t-37 -90z" />
    <glyph glyph-name="yen" unicode="&#xa5;" horiz-adv-x="815" 
d="M788 150h-761v120h761v-120zM788 670l-317 -400v-270h-127v270l-317 400h162l219 -275l218 275h162z" />
    <glyph glyph-name="brokenbar" unicode="&#xa6;" horiz-adv-x="205" 
d="M128 728v-386h-50v386h50zM128 176v-386h-50v386h50z" />
    <glyph glyph-name="section" unicode="&#xa7;" horiz-adv-x="585" 
d="M543 327q-4 -72 -66 -101q66 -38 67 -114q-1 -76 -62.5 -114.5t-187.5 -38.5q-136 0 -252 59l51 101q97 -48 201 -50q87 2 106.5 11t20.5 31q-2 22 -22.5 31.5t-102.5 18.5q-107 10 -168.5 48t-60.5 104q-3 70 52 110q-54 39 -53 105q-2 64 59.5 108.5t167.5 44.5
q116 0 225 -56l-49 -97q-73 38 -176 41q-77 -4 -93 -12t-16 -25q-1 -16 17 -23.5t95 -15.5q128 -11 187 -50.5t60 -115.5zM220 386q-37 -16 -37 -45q1 -31 29 -41t71.5 -18.5t106.5 -16.5q31 10 32 42q1 29 -29 41.5t-74.5 20.5t-98.5 17z" />
    <glyph glyph-name="dieresis" unicode="&#xa8;" horiz-adv-x="455" 
d="M408 602q0 -27 -20 -46.5t-48 -19.5q-27 0 -46.5 20t-19.5 46q0 28 19.5 48t46.5 20q28 0 48 -20t20 -48zM181 602q0 -27 -20 -46.5t-48 -19.5q-27 0 -46.5 20t-19.5 46q0 28 19.5 48t46.5 20q28 0 48 -20t20 -48z" />
    <glyph glyph-name="exclamdown" unicode="&#xa9;" horiz-adv-x="745" 
d="M372 681q91 0 172.5 -46t124.5 -125q47 -82 47 -173t-46.5 -172.5t-127.5 -126t-170 -44.5q-92 0 -173 46.5t-126 127t-45 169.5q0 93 47.5 175t129 125.5t167.5 43.5zM372 625q-76 0 -143 -39t-105 -105q-38 -69 -38 -144q0 -77 39 -144t106.5 -105t140.5 -38
q76 0 143.5 39.5t105 106.5t37.5 141q0 78 -39.5 146t-107.5 105t-139 37zM482 282l56 -17q-14 -59 -58.5 -92t-107.5 -33q-85 0 -134 56q-46 53 -46 140q0 125 88 172q41 22 96 22q124 0 155 -107l-54 -13q-28 70 -103 70q-59 0 -91 -44q-29 -39 -29 -101q0 -61 27 -99
q30 -42 89 -42q41 0 72 24t40 64z" />
    <glyph glyph-name="cent" unicode="&#xaa;" horiz-adv-x="425" 
d="M365 351h-78v16q-36 -20 -94 -21q-60 0 -96 30t-36 78q0 49 40 80.5t101 31.5q42 0 87 -11q0 22 -16.5 37.5t-51.5 15.5q-55 0 -98 -25l-30 59q54 36 128 39q70 0 107 -35t37 -98v-197zM286 436v46q-46 10 -87 11q-30 -1 -51 -11t-21 -29q-1 -22 20 -30.5t49 -8.5
q50 1 90 22z" />
    <glyph glyph-name="guillemotleft" unicode="&#xab;" horiz-adv-x="515" 
d="M261 501l-116 -205l116 -205h-117l-117 205l117 205h117zM488 501l-116 -205l116 -205h-117l-117 205l117 205h117z" />
    <glyph glyph-name="logicalnot" unicode="&#xac;" horiz-adv-x="555" 
d="M527 120h-120v162h-380v120h500v-282z" />
    <glyph glyph-name="registered" unicode="&#xae;" horiz-adv-x="705" 
d="M353 681q89 0 167.5 -44.5t120.5 -121.5q44 -80 44 -167q0 -89 -44.5 -168t-122.5 -122t-165 -43q-90 0 -168 45t-121.5 123.5t-43.5 164.5q0 90 46 169t124.5 121.5t162.5 42.5zM353 620q-72 0 -135.5 -36.5t-99.5 -99.5q-35 -67 -35 -137q0 -74 36.5 -138.5t100.5 -100
t133 -35.5q73 0 137 37t100.5 101.5t36.5 135.5q0 73 -38.5 138.5t-102.5 100t-133 34.5zM207 164v358h123q51 0 75 -5q41 -9 62 -39q16 -25 16 -53q0 -42 -26 -71q-22 -29 -66 -34l117 -156h-64l-119 152h-61v-152h-57zM264 366h71q39 -1 56 8q33 12 31 46q0 34 -34 48
q-15 6 -58 6h-66v-108z" />
    <glyph glyph-name="macron" unicode="&#xaf;" horiz-adv-x="355" 
d="M17 649h320v-70h-320v70z" />
    <glyph glyph-name="degree" unicode="&#xb0;" horiz-adv-x="375" 
d="M52 535q0 56 38 95q39 40 95 40q58 0 98 -39t40 -96t-40 -96q-41 -40 -98 -40q-56 0 -94 39q-39 40 -39 97zM103 535q0 -35 24 -59q25 -24 58 -24q35 0 59 24q25 25 25 59t-24 58q-25 24 -60 24q-33 0 -57 -24q-25 -24 -25 -58z" />
    <glyph glyph-name="plusminus" unicode="&#xb1;" horiz-adv-x="475" 
d="M449 82h-423v120h423v-120zM449 390h-154v-153h-116v153h-153v120h153v150h116v-150h154v-120z" />
    <glyph glyph-name="twosuperior" unicode="&#xb2;" horiz-adv-x="475" 
d="M419 281h-363q22 152 204 219q51 19 69 31t17 32q0 19 -26.5 32t-63.5 13q-84 -3 -149 -52l-51 51q85 72 200 74q67 0 115 -30.5t48 -86.5q0 -53 -32.5 -83t-94.5 -51q-80 -28 -119 -71h246v-78z" />
    <glyph glyph-name="threesuperior" unicode="&#xb3;" horiz-adv-x="475" 
d="M420 407q0 -63 -53 -99q-42 -27 -119 -27q-49 0 -99 16.5t-93 48.5l55 55q28 -19 62.5 -31.5t73.5 -14.5q45 0 73 14t28 40t-20 39t-45 13h-43v74h43q42 0 42 32q0 22 -22.5 31.5t-59.5 10.5q-68 1 -113 -32l-50 50q73 54 163 54q68 0 111 -31t43 -81q1 -46 -34 -71
q56 -26 57 -91z" />
    <glyph glyph-name="acute" unicode="&#xb4;" horiz-adv-x="245" 
d="M23 533l69 137h130l-122 -137h-77z" />
    <glyph glyph-name="mu" unicode="&#xb5;" 
d="M69 489h127v-270q0 -47 33.5 -81t88.5 -34q48 -1 84.5 31.5t37.5 87.5v266h127v-489l-127 -64v104q-53 -49 -138 -49q-68 1 -106 39v-121l-127 -63v643z" />
    <glyph glyph-name="paragraph" unicode="&#xb6;" horiz-adv-x="375" 
d="M142 0v375q-55 3 -89 41q-34 39 -34 104q0 74 41 114q38 36 103 36h194v-62h-45v-608h-52v608h-68v-608h-50z" />
    <glyph glyph-name="periodcentered" unicode="&#xb7;" horiz-adv-x="235" 
d="M184 432q0 -27 -20 -46.5t-48 -19.5q-27 0 -46.5 19.5t-19.5 46.5q0 28 19.5 48t46.5 20q28 0 48 -20t20 -48z" />
    <glyph glyph-name="cedilla" unicode="&#xb8;" horiz-adv-x="295" 
d="M28 -176v54q33 -9 63.5 -13.5t53.5 -4.5q19 0 28 7.5t9 23.5q0 12 -12 18t-40 6h-14h-10v85h50v-32h9q47 0 74 -20t27 -58q0 -43 -29 -65t-84 -22q-25 0 -56 5.5t-69 15.5z" />
    <glyph glyph-name="onesuperior" unicode="&#xb9;" horiz-adv-x="225" 
d="M177 281h-75v295h-54v61q48 10 72 44h57v-400z" />
    <glyph glyph-name="ordmasculine" unicode="&#xba;" horiz-adv-x="425" 
d="M388 504q0 -75 -50.5 -126.5t-125.5 -51.5q-74 0 -124.5 52.5t-50.5 125.5q0 76 50.5 126.5t124.5 50.5q75 0 125.5 -50.5t50.5 -126.5zM304 504q0 41 -28 67.5t-64 26.5t-63.5 -26.5t-27.5 -67.5q0 -40 27.5 -66t63.5 -26t64 26.5t28 65.5z" />
    <glyph glyph-name="guillemotright" unicode="&#xbb;" horiz-adv-x="515" 
d="M371 501l117 -205l-117 -205h-117l116 205l-116 205h117zM144 501l117 -205l-117 -205h-117l116 205l-116 205h117z" />
    <glyph glyph-name="onequarter" unicode="&#xbc;" horiz-adv-x="1205" 
d="M1112 83h-54v-83h-81v83h-306v79l306 273h81v-273h54v-79zM977 162v168l-191 -168h191zM272 0l541 682h69l-537 -682h-73zM231 247h-79v319h-59v67q52 11 78 49h60v-435z" />
    <glyph glyph-name="onehalf" unicode="&#xbd;" horiz-adv-x="1245" 
d="M1174 0h-390q30 171 221 237q45 14 69 31t21 39q0 20 -28 34.5t-66 14.5q-85 -4 -159 -60l-58 58q97 79 217 81q69 0 121 -33t52 -94q0 -55 -37.5 -89.5t-103.5 -55.5q-94 -34 -124 -81h265v-82zM210 247h-79v319h-59v67q52 11 78 49h60v-435zM216 0l541 682h69
l-537 -682h-73z" />
    <glyph glyph-name="threequarters" unicode="&#xbe;" horiz-adv-x="1275" 
d="M1199 83h-54v-83h-81v83h-306v79l306 273h81v-273h54v-79zM1064 162v168l-191 -168h191zM467 385q0 -67 -56 -106q-45 -32 -127 -32q-52 0 -107.5 18.5t-99.5 53.5l62 62q29 -24 68 -37.5t75 -15.5q53 -1 81 15t28 44q0 30 -21.5 44t-48.5 14h-45v80h45q45 0 45 35
q0 23 -23.5 33.5t-63.5 11.5q-72 0 -118 -35l-54 54q77 58 172 58q72 0 118 -33.5t46 -86.5q0 -51 -36 -78q59 -28 60 -99zM359 0l541 682h69l-537 -682h-73z" />
    <glyph glyph-name="questiondown" unicode="&#xbf;" horiz-adv-x="675" 
d="M55 187q0 79 91 151q91 77 119 148h118q-22 -110 -127 -197q-75 -66 -74 -95q-2 -39 42.5 -59.5t103.5 -21.5q117 1 205 70l88 -88q-130 -107 -291 -107q-125 0 -200 54t-75 145zM262 615q0 27 20 46.5t48 19.5q27 0 46.5 -20t19.5 -46q0 -28 -19.5 -48t-46.5 -20
q-28 0 -48 20t-20 48z" />
    <glyph glyph-name="Agrave" unicode="&#xc0;" horiz-adv-x="815" 
d="M430 699l-122 137h130l69 -137h-77zM788 0h-141l-68 146h-341l-70 -146h-141l317 670h127zM518 275l-110 233l-111 -233h221z" />
    <glyph glyph-name="Aacute" unicode="&#xc1;" horiz-adv-x="815" 
d="M788 0h-141l-68 146h-341l-70 -146h-141l317 670h127zM518 275l-110 233l-111 -233h221zM308 699l69 137h130l-122 -137h-77z" />
    <glyph glyph-name="Acircumflex" unicode="&#xc2;" horiz-adv-x="815" 
d="M482 699l-75 75l-75 -75h-78l97 137h112l98 -137h-79zM788 0h-141l-68 146h-341l-70 -146h-141l317 670h127zM518 275l-110 233l-111 -233h221z" />
    <glyph glyph-name="Atilde" unicode="&#xc3;" horiz-adv-x="815" 
d="M567 823q-3 -61 -35.5 -90.5t-72.5 -28.5q-12 1 -18 2t-16 4l-54 18q-8 2 -13.5 3t-16.5 1q-14 0 -24.5 -9.5t-17.5 -29.5h-52q3 59 31 88t67 29q12 -1 17 -2l15 -3l58 -19q10 -2 15 -2.5t16 -0.5q15 1 26 11t14 29h61zM788 0h-141l-68 146h-341l-70 -146h-141l317 670
h127zM518 275l-110 233l-111 -233h221z" />
    <glyph glyph-name="Adieresis" unicode="&#xc4;" horiz-adv-x="815" 
d="M788 0h-141l-68 146h-341l-70 -146h-141l317 670h127zM518 275l-110 233l-111 -233h221zM361 776q0 -27 -20 -46.5t-48 -19.5q-27 0 -46.5 20t-19.5 46q0 28 19.5 48t46.5 20q28 0 48 -20t20 -48zM588 776q0 -27 -20 -46.5t-48 -19.5q-27 0 -46.5 20t-19.5 46
q0 28 19.5 48t46.5 20q28 0 48 -20t20 -48z" />
    <glyph glyph-name="Aring" unicode="&#xc5;" horiz-adv-x="815" 
d="M505 768h-36q1 25 -17.5 43t-44.5 18t-44.5 -17.5t-18.5 -43.5q0 -25 18.5 -43.5t44.5 -18.5t44.5 18.5t17.5 43.5h36q0 -40 -29 -69t-69 -29t-68.5 29t-28.5 69q0 41 28 69t69 28q39 0 68.5 -28.5t29.5 -68.5zM788 0h-141l-68 146h-341l-70 -146h-141l317 670h127z
M518 275l-110 233l-111 -233h221z" />
    <glyph glyph-name="AE" unicode="&#xc6;" horiz-adv-x="1135" 
d="M536 515l-173 -240h173v-129h-254l-102 -146h-153l463 670h579v-127h-406v-122h235v-130h-235v-164h416v-127h-543v515z" />
    <glyph glyph-name="Ccedilla" unicode="&#xc7;" horiz-adv-x="745" 
d="M297 -176v54q33 -9 63.5 -13.5t53.5 -4.5q19 0 28 7.5t9 23.5q0 12 -12 18t-40 6h-14h-10v85h50v-32h9q47 0 74 -20t27 -58q0 -43 -29 -65t-84 -22q-25 0 -56 5.5t-69 15.5zM688 140q-111 -152 -287 -152q-143 0 -244 101.5t-101 244.5q0 146 101.5 246.5t248.5 100.5
q178 -4 280 -148l-104 -72q-74 91 -181 91q-91 0 -154.5 -63t-63.5 -153q0 -92 63.5 -155.5t154.5 -63.5q101 0 181 92z" />
    <glyph glyph-name="Egrave" unicode="&#xc8;" horiz-adv-x="705" 
d="M375 699l-122 137h130l69 -137h-77zM624 0h-543v670h533v-127h-406v-122h235v-130h-235v-164h416v-127z" />
    <glyph glyph-name="Eacute" unicode="&#xc9;" horiz-adv-x="705" 
d="M253 699l69 137h130l-122 -137h-77zM624 0h-543v670h533v-127h-406v-122h235v-130h-235v-164h416v-127z" />
    <glyph glyph-name="Ecircumflex" unicode="&#xca;" horiz-adv-x="705" 
d="M427 699l-75 75l-75 -75h-78l97 137h112l98 -137h-79zM624 0h-543v670h533v-127h-406v-122h235v-130h-235v-164h416v-127z" />
    <glyph glyph-name="Edieresis" unicode="&#xcb;" horiz-adv-x="705" 
d="M306 776q0 -27 -20 -46.5t-48 -19.5q-27 0 -46.5 20t-19.5 46q0 28 19.5 48t46.5 20q28 0 48 -20t20 -48zM533 776q0 -27 -20 -46.5t-48 -19.5q-27 0 -46.5 20t-19.5 46q0 28 19.5 48t46.5 20q28 0 48 -20t20 -48zM624 0h-543v670h533v-127h-406v-122h235v-130h-235v-164
h416v-127z" />
    <glyph glyph-name="Igrave" unicode="&#xcc;" horiz-adv-x="315" 
d="M180 699l-122 137h130l69 -137h-77zM221 0h-127v670h127v-670z" />
    <glyph glyph-name="Iacute" unicode="&#xcd;" horiz-adv-x="315" 
d="M58 699l69 137h130l-122 -137h-77zM221 0h-127v670h127v-670z" />
    <glyph glyph-name="Icircumflex" unicode="&#xce;" horiz-adv-x="315" 
d="M232 699l-75 75l-75 -75h-78l97 137h112l98 -137h-79zM221 0h-127v670h127v-670z" />
    <glyph glyph-name="Idieresis" unicode="&#xcf;" horiz-adv-x="315" 
d="M111 776q0 -27 -20 -46.5t-48 -19.5q-27 0 -46.5 20t-19.5 46q0 28 19.5 48t46.5 20q28 0 48 -20t20 -48zM338 776q0 -27 -20 -46.5t-48 -19.5q-27 0 -46.5 20t-19.5 46q0 28 19.5 48t46.5 20q28 0 48 -20t20 -48zM221 0h-127v670h127v-670z" />
    <glyph glyph-name="Eth" unicode="&#xd0;" horiz-adv-x="815" 
d="M761 336q0 -139 -98.5 -237.5t-237.5 -98.5h-294v670h294q139 0 237.5 -98t98.5 -236zM632 336q0 85 -60.5 146t-146.5 61h-167v-416h167q86 0 146.5 61t60.5 148zM445 283h-392v120h392v-120z" />
    <glyph glyph-name="Ntilde" unicode="&#xd1;" horiz-adv-x="815" 
d="M723 0h-127l-376 463v-463h-127v670h125l376 -468v468h129v-670zM567 823q-3 -61 -35.5 -90.5t-72.5 -28.5q-12 1 -18 2t-16 4l-54 18q-8 2 -13.5 3t-16.5 1q-14 0 -24.5 -9.5t-17.5 -29.5h-52q3 59 31 88t67 29q12 -1 17 -2l15 -3l58 -19q10 -2 15 -2.5t16 -0.5
q15 1 26 11t14 29h61z" />
    <glyph glyph-name="Ograve" unicode="&#xd2;" horiz-adv-x="815" 
d="M758 338q0 -144 -103.5 -247t-246.5 -103t-246.5 103t-103.5 245q0 146 101 245.5t249 99.5q140 0 245 -102t105 -241zM631 338q0 88 -65.5 151t-157.5 63t-157.5 -62t-65.5 -152q0 -91 65.5 -156t157.5 -65t157.5 65t65.5 156zM430 699l-122 137h130l69 -137h-77z" />
    <glyph glyph-name="Oacute" unicode="&#xd3;" horiz-adv-x="815" 
d="M758 338q0 -144 -103.5 -247t-246.5 -103t-246.5 103t-103.5 245q0 146 101 245.5t249 99.5q140 0 245 -102t105 -241zM631 338q0 88 -65.5 151t-157.5 63t-157.5 -62t-65.5 -152q0 -91 65.5 -156t157.5 -65t157.5 65t65.5 156zM308 699l69 137h130l-122 -137h-77z" />
    <glyph glyph-name="Ocircumflex" unicode="&#xd4;" horiz-adv-x="815" 
d="M758 338q0 -144 -103.5 -247t-246.5 -103t-246.5 103t-103.5 245q0 146 101 245.5t249 99.5q140 0 245 -102t105 -241zM631 338q0 88 -65.5 151t-157.5 63t-157.5 -62t-65.5 -152q0 -91 65.5 -156t157.5 -65t157.5 65t65.5 156zM482 699l-75 75l-75 -75h-78l97 137h112
l98 -137h-79z" />
    <glyph glyph-name="Otilde" unicode="&#xd5;" horiz-adv-x="815" 
d="M758 338q0 -144 -103.5 -247t-246.5 -103t-246.5 103t-103.5 245q0 146 101 245.5t249 99.5q140 0 245 -102t105 -241zM631 338q0 88 -65.5 151t-157.5 63t-157.5 -62t-65.5 -152q0 -91 65.5 -156t157.5 -65t157.5 65t65.5 156zM567 823q-3 -61 -35.5 -90.5t-72.5 -28.5
q-12 1 -18 2t-16 4l-54 18q-8 2 -13.5 3t-16.5 1q-14 0 -24.5 -9.5t-17.5 -29.5h-52q3 59 31 88t67 29q12 -1 17 -2l15 -3l58 -19q10 -2 15 -2.5t16 -0.5q15 1 26 11t14 29h61z" />
    <glyph glyph-name="Odieresis" unicode="&#xd6;" horiz-adv-x="815" 
d="M758 338q0 -144 -103.5 -247t-246.5 -103t-246.5 103t-103.5 245q0 146 101 245.5t249 99.5q140 0 245 -102t105 -241zM631 338q0 88 -65.5 151t-157.5 63t-157.5 -62t-65.5 -152q0 -91 65.5 -156t157.5 -65t157.5 65t65.5 156zM361 776q0 -27 -20 -46.5t-48 -19.5
q-27 0 -46.5 20t-19.5 46q0 28 19.5 48t46.5 20q28 0 48 -20t20 -48zM588 776q0 -27 -20 -46.5t-48 -19.5q-27 0 -46.5 20t-19.5 46q0 28 19.5 48t46.5 20q28 0 48 -20t20 -48z" />
    <glyph glyph-name="multiply" unicode="&#xd7;" horiz-adv-x="584" 
d="M79 200l153 154l-153 153l60 59l153 -153l153 153l58 -59l-152 -153l153 -153l-59 -60l-153 153l-154 -153z" />
    <glyph glyph-name="Oslash" unicode="&#xd8;" horiz-adv-x="815" 
d="M810 681l-693 -693h-113l693 693h113zM758 338q0 -144 -103.5 -247t-246.5 -103t-246.5 103t-103.5 245q0 146 101 245.5t249 99.5q140 0 245 -102t105 -241zM631 338q0 88 -65.5 151t-157.5 63t-157.5 -62t-65.5 -152q0 -91 65.5 -156t157.5 -65t157.5 65t65.5 156z" />
    <glyph glyph-name="Ugrave" unicode="&#xd9;" horiz-adv-x="815" 
d="M721 317q0 -106 -40.5 -175t-114.5 -111.5t-157 -42.5t-158 42.5t-115 112.5q-42 75 -42 174v353h127v-353q0 -62 26 -108q24 -42 68 -67t94 -25q49 0 92.5 25t67.5 67q26 46 26 108v353h126v-353zM430 699l-122 137h130l69 -137h-77z" />
    <glyph glyph-name="Uacute" unicode="&#xda;" horiz-adv-x="815" 
d="M721 317q0 -106 -40.5 -175t-114.5 -111.5t-157 -42.5t-158 42.5t-115 112.5q-42 75 -42 174v353h127v-353q0 -62 26 -108q24 -42 68 -67t94 -25q49 0 92.5 25t67.5 67q26 46 26 108v353h126v-353zM308 699l69 137h130l-122 -137h-77z" />
    <glyph glyph-name="Ucircumflex" unicode="&#xdb;" horiz-adv-x="815" 
d="M721 317q0 -106 -40.5 -175t-114.5 -111.5t-157 -42.5t-158 42.5t-115 112.5q-42 75 -42 174v353h127v-353q0 -62 26 -108q24 -42 68 -67t94 -25q49 0 92.5 25t67.5 67q26 46 26 108v353h126v-353zM482 699l-75 75l-75 -75h-78l97 137h112l98 -137h-79z" />
    <glyph glyph-name="Udieresis" unicode="&#xdc;" horiz-adv-x="815" 
d="M721 317q0 -106 -40.5 -175t-114.5 -111.5t-157 -42.5t-158 42.5t-115 112.5q-42 75 -42 174v353h127v-353q0 -62 26 -108q24 -42 68 -67t94 -25q49 0 92.5 25t67.5 67q26 46 26 108v353h126v-353zM361 776q0 -27 -20 -46.5t-48 -19.5q-27 0 -46.5 20t-19.5 46
q0 28 19.5 48t46.5 20q28 0 48 -20t20 -48zM588 776q0 -27 -20 -46.5t-48 -19.5q-27 0 -46.5 20t-19.5 46q0 28 19.5 48t46.5 20q28 0 48 -20t20 -48z" />
    <glyph glyph-name="Yacute" unicode="&#xdd;" horiz-adv-x="815" 
d="M788 670l-317 -400v-270h-127v270l-317 400h162l219 -275l218 275h162zM308 699l69 137h130l-122 -137h-77z" />
    <glyph glyph-name="Thorn" unicode="&#xde;" horiz-adv-x="775" 
d="M486 109h-282v-109h-127v670h127v-142h282q88 0 149.5 -61.5t61.5 -147.5q0 -84 -61.5 -147t-149.5 -63zM570 319q0 33 -24.5 57.5t-59.5 24.5h-282v-165h282q35 0 59.5 24.5t24.5 58.5z" />
    <glyph glyph-name="germandbls" unicode="&#xdf;" horiz-adv-x="735" 
d="M670 207q0 -107 -91 -169q-73 -50 -174 -50h-132v128h129q53 -1 98.5 24.5t45.5 70.5t-35 67.5t-78 22.5h-155v127h155q73 0 73 54q0 37 -42 57.5t-98 19.5q-78 0 -123 -40.5t-48 -92.5v-517l-129 -64v580q0 104 78 179t221 77q116 0 190.5 -55t74.5 -140q1 -80 -58 -123
q96 -44 98 -156z" />
    <glyph glyph-name="agrave" unicode="&#xe0;" 
d="M340 523l-122 137h130l69 -137h-77zM571 0h-130v23q-62 -30 -157 -32q-100 0 -160.5 45.5t-60.5 116.5q0 74 67 122.5t168 48.5q71 0 145 -17q0 35 -27 58t-85 23q-92 0 -169 -43l-48 95q90 57 217 61q115 -4 177 -56.5t63 -148.5v-296zM439 128v69q-76 14 -146 15
q-49 -1 -84 -15.5t-34 -44.5q-2 -32 32.5 -45.5t81.5 -13.5q82 2 150 35z" />
    <glyph glyph-name="aacute" unicode="&#xe1;" 
d="M571 0h-130v23q-62 -30 -157 -32q-100 0 -160.5 45.5t-60.5 116.5q0 74 67 122.5t168 48.5q71 0 145 -17q0 35 -27 58t-85 23q-92 0 -169 -43l-48 95q90 57 217 61q115 -4 177 -56.5t63 -148.5v-296zM439 128v69q-76 14 -146 15q-49 -1 -84 -15.5t-34 -44.5
q-2 -32 32.5 -45.5t81.5 -13.5q82 2 150 35zM218 523l69 137h130l-122 -137h-77z" />
    <glyph glyph-name="acircumflex" unicode="&#xe2;" 
d="M392 527l-75 75l-75 -75h-78l97 137h112l98 -137h-79zM571 0h-130v23q-62 -30 -157 -32q-100 0 -160.5 45.5t-60.5 116.5q0 74 67 122.5t168 48.5q71 0 145 -17q0 35 -27 58t-85 23q-92 0 -169 -43l-48 95q90 57 217 61q115 -4 177 -56.5t63 -148.5v-296zM439 128v69
q-76 14 -146 15q-49 -1 -84 -15.5t-34 -44.5q-2 -32 32.5 -45.5t81.5 -13.5q82 2 150 35z" />
    <glyph glyph-name="atilde" unicode="&#xe3;" 
d="M477 662q-3 -61 -35.5 -90.5t-72.5 -28.5q-12 1 -18 2t-16 4l-54 18q-8 2 -13.5 3t-16.5 1q-14 0 -24.5 -9.5t-17.5 -29.5h-52q3 59 31 88t67 29q12 -1 17 -2l15 -3l58 -19q10 -2 15 -2.5t16 -0.5q15 1 26 11t14 29h61zM571 0h-130v23q-62 -30 -157 -32
q-100 0 -160.5 45.5t-60.5 116.5q0 74 67 122.5t168 48.5q71 0 145 -17q0 35 -27 58t-85 23q-92 0 -169 -43l-48 95q90 57 217 61q115 -4 177 -56.5t63 -148.5v-296zM439 128v69q-76 14 -146 15q-49 -1 -84 -15.5t-34 -44.5q-2 -32 32.5 -45.5t81.5 -13.5q82 2 150 35z" />
    <glyph glyph-name="adieresis" unicode="&#xe4;" 
d="M271 592q0 -27 -20 -46.5t-48 -19.5q-27 0 -46.5 20t-19.5 46q0 28 19.5 48t46.5 20q28 0 48 -20t20 -48zM498 592q0 -27 -20 -46.5t-48 -19.5q-27 0 -46.5 20t-19.5 46q0 28 19.5 48t46.5 20q28 0 48 -20t20 -48zM571 0h-130v23q-62 -30 -157 -32q-100 0 -160.5 45.5
t-60.5 116.5q0 74 67 122.5t168 48.5q71 0 145 -17q0 35 -27 58t-85 23q-92 0 -169 -43l-48 95q90 57 217 61q115 -4 177 -56.5t63 -148.5v-296zM439 128v69q-76 14 -146 15q-49 -1 -84 -15.5t-34 -44.5q-2 -32 32.5 -45.5t81.5 -13.5q82 2 150 35z" />
    <glyph glyph-name="aring" unicode="&#xe5;" 
d="M415 620h-36q1 25 -17.5 43t-44.5 18t-44.5 -17.5t-18.5 -43.5q0 -25 18.5 -43.5t44.5 -18.5t44.5 18.5t17.5 43.5h36q0 -40 -29 -69t-69 -29t-68.5 29t-28.5 69q0 41 28 69t69 28q39 0 68.5 -28.5t29.5 -68.5zM571 0h-130v23q-62 -30 -157 -32q-100 0 -160.5 45.5
t-60.5 116.5q0 74 67 122.5t168 48.5q71 0 145 -17q0 35 -27 58t-85 23q-92 0 -169 -43l-48 95q90 57 217 61q115 -4 177 -56.5t63 -148.5v-296zM439 128v69q-76 14 -146 15q-49 -1 -84 -15.5t-34 -44.5q-2 -32 32.5 -45.5t81.5 -13.5q82 2 150 35z" />
    <glyph glyph-name="ae" unicode="&#xe6;" horiz-adv-x="1025" 
d="M507 47q-89 -56 -228 -56q-100 0 -161 41t-60 121q0 74 67 122.5t168 48.5q71 0 145 -17q0 35 -27 58t-85 23q-92 0 -169 -43l-48 95q90 57 217 61q115 -4 188 -72q76 72 188 72q117 0 191 -86t76 -215h-405q5 -41 42.5 -70.5t92.5 -29.5q72 1 121 42l81 -81
q-89 -68 -199 -70q-136 0 -195 56zM432 130v69q-76 14 -146 15q-49 -1 -84 -15.5t-34 -44.5q-2 -32 32.5 -45.5t81.5 -13.5q82 2 150 35zM828 312q-12 27 -47 50t-81 23q-50 -1 -87 -24t-45 -49h260z" />
    <glyph glyph-name="ccedilla" unicode="&#xe7;" horiz-adv-x="575" 
d="M523 80q-80 -89 -206 -89q-111 0 -188.5 74t-77.5 179q0 106 77 179t189 73q126 0 207 -100l-80 -80q-49 60 -127 60q-55 0 -96 -37.5t-41 -94.5q0 -58 41 -94.5t96 -36.5q70 -1 123 50zM215 -176v54q33 -9 63.5 -13.5t53.5 -4.5q19 0 28 7.5t9 23.5q0 12 -12 18t-40 6
h-14h-10v85h50v-32h9q47 0 74 -20t27 -58q0 -43 -29 -65t-84 -22q-25 0 -56 5.5t-69 15.5z" />
    <glyph glyph-name="egrave" unicode="&#xe8;" 
d="M584 198h-405q6 -32 44 -61.5t93 -29.5q67 -3 116 36l84 -84q-89 -68 -199 -68q-111 0 -188.5 75t-77.5 181t77 179t189 73q117 0 191 -86t76 -215zM443 310q-12 27 -47 50t-81 23q-50 -1 -87 -24t-45 -49h260zM340 523l-122 137h130l69 -137h-77z" />
    <glyph glyph-name="eacute" unicode="&#xe9;" 
d="M584 198h-405q6 -32 44 -61.5t93 -29.5q67 -3 116 36l84 -84q-89 -68 -199 -68q-111 0 -188.5 75t-77.5 181t77 179t189 73q117 0 191 -86t76 -215zM443 310q-12 27 -47 50t-81 23q-50 -1 -87 -24t-45 -49h260zM218 523l69 137h130l-122 -137h-77z" />
    <glyph glyph-name="ecircumflex" unicode="&#xea;" 
d="M584 198h-405q6 -32 44 -61.5t93 -29.5q67 -3 116 36l84 -84q-89 -68 -199 -68q-111 0 -188.5 75t-77.5 181t77 179t189 73q117 0 191 -86t76 -215zM443 310q-12 27 -47 50t-81 23q-50 -1 -87 -24t-45 -49h260zM392 527l-75 75l-75 -75h-78l97 137h112l98 -137h-79z" />
    <glyph glyph-name="edieresis" unicode="&#xeb;" 
d="M584 198h-405q6 -32 44 -61.5t93 -29.5q67 -3 116 36l84 -84q-89 -68 -199 -68q-111 0 -188.5 75t-77.5 181t77 179t189 73q117 0 191 -86t76 -215zM443 310q-12 27 -47 50t-81 23q-50 -1 -87 -24t-45 -49h260zM271 592q0 -27 -20 -46.5t-48 -19.5q-27 0 -46.5 20
t-19.5 46q0 28 19.5 48t46.5 20q28 0 48 -20t20 -48zM498 592q0 -27 -20 -46.5t-48 -19.5q-27 0 -46.5 20t-19.5 46q0 28 19.5 48t46.5 20q28 0 48 -20t20 -48z" />
    <glyph glyph-name="igrave" unicode="&#xec;" horiz-adv-x="285" 
d="M165 523l-122 137h130l69 -137h-77zM206 0h-127v489h127v-489z" />
    <glyph glyph-name="iacute" unicode="&#xed;" horiz-adv-x="285" 
d="M206 0h-127v489h127v-489zM43 523l69 137h130l-122 -137h-77z" />
    <glyph glyph-name="icircumflex" unicode="&#xee;" horiz-adv-x="285" 
d="M217 527l-75 75l-75 -75h-78l97 137h112l98 -137h-79zM206 0h-127v489h127v-489z" />
    <glyph glyph-name="idieresis" unicode="&#xef;" horiz-adv-x="285" 
d="M96 592q0 -27 -20 -46.5t-48 -19.5q-27 0 -46.5 20t-19.5 46q0 28 19.5 48t46.5 20q28 0 48 -20t20 -48zM323 592q0 -27 -20 -46.5t-48 -19.5q-27 0 -46.5 20t-19.5 46q0 28 19.5 48t46.5 20q28 0 48 -20t20 -48zM206 0h-127v489h127v-489z" />
    <glyph glyph-name="eth" unicode="&#xf0;" 
d="M583 224q-4 -111 -72 -173.5t-194 -62.5q-115 0 -191 62t-75 174q0 95 65.5 162t196.5 67q27 0 60 -11q-73 83 -249 132l54 107q191 -50 298.5 -171t106.5 -286zM311 105q69 0 104.5 34.5t35.5 79.5q0 49 -39 81.5t-101 32.5q-67 0 -101 -33t-34 -81q0 -47 34 -80.5
t101 -33.5zM96 509l391 161l40 -81l-390 -161z" />
    <glyph glyph-name="ntilde" unicode="&#xf1;" 
d="M567 0h-127v270q0 47 -33.5 81t-88.5 34q-48 1 -84.5 -31.5t-37.5 -87.5v-266h-127v489h127v-40q53 49 138 49q108 -2 170.5 -73t62.5 -155v-270zM477 662q-3 -61 -35.5 -90.5t-72.5 -28.5q-12 1 -18 2t-16 4l-54 18q-8 2 -13.5 3t-16.5 1q-14 0 -24.5 -9.5t-17.5 -29.5
h-52q3 59 31 88t67 29q12 -1 17 -2l15 -3l58 -19q10 -2 15 -2.5t16 -0.5q15 1 26 11t14 29h61z" />
    <glyph glyph-name="ograve" unicode="&#xf2;" 
d="M584 244q0 -107 -77 -180t-190 -73q-111 0 -188.5 74t-77.5 179q0 106 77 179t189 73t189.5 -73t77.5 -179zM455 244q0 57 -42 94.5t-96 37.5q-55 0 -96 -37.5t-41 -94.5q0 -58 41 -94.5t96 -36.5q54 0 96 37.5t42 93.5zM340 523l-122 137h130l69 -137h-77z" />
    <glyph glyph-name="oacute" unicode="&#xf3;" 
d="M584 244q0 -107 -77 -180t-190 -73q-111 0 -188.5 74t-77.5 179q0 106 77 179t189 73t189.5 -73t77.5 -179zM455 244q0 57 -42 94.5t-96 37.5q-55 0 -96 -37.5t-41 -94.5q0 -58 41 -94.5t96 -36.5q54 0 96 37.5t42 93.5zM218 523l69 137h130l-122 -137h-77z" />
    <glyph glyph-name="ocircumflex" unicode="&#xf4;" 
d="M584 244q0 -107 -77 -180t-190 -73q-111 0 -188.5 74t-77.5 179q0 106 77 179t189 73t189.5 -73t77.5 -179zM455 244q0 57 -42 94.5t-96 37.5q-55 0 -96 -37.5t-41 -94.5q0 -58 41 -94.5t96 -36.5q54 0 96 37.5t42 93.5zM392 527l-75 75l-75 -75h-78l97 137h112l98 -137
h-79z" />
    <glyph glyph-name="otilde" unicode="&#xf5;" 
d="M584 244q0 -107 -77 -180t-190 -73q-111 0 -188.5 74t-77.5 179q0 106 77 179t189 73t189.5 -73t77.5 -179zM455 244q0 57 -42 94.5t-96 37.5q-55 0 -96 -37.5t-41 -94.5q0 -58 41 -94.5t96 -36.5q54 0 96 37.5t42 93.5zM477 662q-3 -61 -35.5 -90.5t-72.5 -28.5
q-12 1 -18 2t-16 4l-54 18q-8 2 -13.5 3t-16.5 1q-14 0 -24.5 -9.5t-17.5 -29.5h-52q3 59 31 88t67 29q12 -1 17 -2l15 -3l58 -19q10 -2 15 -2.5t16 -0.5q15 1 26 11t14 29h61z" />
    <glyph glyph-name="odieresis" unicode="&#xf6;" 
d="M584 244q0 -107 -77 -180t-190 -73q-111 0 -188.5 74t-77.5 179q0 106 77 179t189 73t189.5 -73t77.5 -179zM455 244q0 57 -42 94.5t-96 37.5q-55 0 -96 -37.5t-41 -94.5q0 -58 41 -94.5t96 -36.5q54 0 96 37.5t42 93.5zM271 592q0 -27 -20 -46.5t-48 -19.5
q-27 0 -46.5 20t-19.5 46q0 28 19.5 48t46.5 20q28 0 48 -20t20 -48zM498 592q0 -27 -20 -46.5t-48 -19.5q-27 0 -46.5 20t-19.5 46q0 28 19.5 48t46.5 20q28 0 48 -20t20 -48z" />
    <glyph glyph-name="divide" unicode="&#xf7;" horiz-adv-x="575" 
d="M288 284q22 0 39.5 -17t17.5 -41t-17.5 -41t-39.5 -17q-25 0 -42 17t-17 41t17 41t42 17zM58 415h460v-76h-460v76zM288 584q22 0 39.5 -16.5t17.5 -40.5t-17.5 -41t-39.5 -17q-25 0 -42 17t-17 41t17 40.5t42 16.5z" />
    <glyph glyph-name="oslash" unicode="&#xf8;" 
d="M634 504l-516 -516h-117l516 516h117zM584 244q0 -107 -77 -180t-190 -73q-111 0 -188.5 74t-77.5 179q0 106 77 179t189 73t189.5 -73t77.5 -179zM455 244q0 57 -42 94.5t-96 37.5q-55 0 -96 -37.5t-41 -94.5q0 -58 41 -94.5t96 -36.5q54 0 96 37.5t42 93.5z" />
    <glyph glyph-name="ugrave" unicode="&#xf9;" 
d="M69 489h127v-270q0 -47 33.5 -81t88.5 -34q48 -1 84.5 31.5t37.5 87.5v266h127v-489h-127v40q-53 -49 -138 -49q-108 2 -170.5 73t-62.5 155v270zM340 523l-122 137h130l69 -137h-77z" />
    <glyph glyph-name="uacute" unicode="&#xfa;" 
d="M69 489h127v-270q0 -47 33.5 -81t88.5 -34q48 -1 84.5 31.5t37.5 87.5v266h127v-489h-127v40q-53 -49 -138 -49q-108 2 -170.5 73t-62.5 155v270zM218 523l69 137h130l-122 -137h-77z" />
    <glyph glyph-name="ucircumflex" unicode="&#xfb;" 
d="M69 489h127v-270q0 -47 33.5 -81t88.5 -34q48 -1 84.5 31.5t37.5 87.5v266h127v-489h-127v40q-53 -49 -138 -49q-108 2 -170.5 73t-62.5 155v270zM392 527l-75 75l-75 -75h-78l97 137h112l98 -137h-79z" />
    <glyph glyph-name="udieresis" unicode="&#xfc;" 
d="M69 489h127v-270q0 -47 33.5 -81t88.5 -34q48 -1 84.5 31.5t37.5 87.5v266h127v-489h-127v40q-53 -49 -138 -49q-108 2 -170.5 73t-62.5 155v270zM271 592q0 -27 -20 -46.5t-48 -19.5q-27 0 -46.5 20t-19.5 46q0 28 19.5 48t46.5 20q28 0 48 -20t20 -48zM498 592
q0 -27 -20 -46.5t-48 -19.5q-27 0 -46.5 20t-19.5 46q0 28 19.5 48t46.5 20q28 0 48 -20t20 -48z" />
    <glyph glyph-name="yacute" unicode="&#xfd;" horiz-adv-x="645" 
d="M223 523l69 137h130l-122 -137h-77zM630 489l-321 -731h-152l106 242l-249 489h149l171 -336l152 336h144z" />
    <glyph glyph-name="thorn" unicode="&#xfe;" horiz-adv-x="665" 
d="M598 244q0 -107 -76.5 -180t-189.5 -73q-74 0 -136 32v-201l-129 -64v859l129 64v-220q16 12 52 22q41 12 80 13q125 1 199 -72q71 -70 71 -180zM471 242q0 64 -45 100q-40 33 -102 33q-75 0 -128 -46v-172q55 -44 131 -44q61 0 100 31q44 35 44 98z" />
    <glyph glyph-name="ydieresis" unicode="&#xff;" horiz-adv-x="645" 
d="M276 592q0 -27 -20 -46.5t-48 -19.5q-27 0 -46.5 20t-19.5 46q0 28 19.5 48t46.5 20q28 0 48 -20t20 -48zM503 592q0 -27 -20 -46.5t-48 -19.5q-27 0 -46.5 20t-19.5 46q0 28 19.5 48t46.5 20q28 0 48 -20t20 -48zM630 489l-321 -731h-152l106 242l-249 489h149l171 -336
l152 336h144z" />
    <glyph glyph-name="OE" unicode="&#x152;" horiz-adv-x="1225" 
d="M755 338q0 -144 -103.5 -247t-246.5 -103t-246.5 103t-103.5 245q0 146 101 245.5t249 99.5q140 0 245 -102t105 -241zM628 338q0 88 -65.5 151t-157.5 63t-157.5 -62t-65.5 -152q0 -91 65.5 -156t157.5 -65t157.5 65t65.5 156zM1171 0h-543v670h533v-127h-406v-122h235
v-130h-235v-164h416v-127z" />
    <glyph glyph-name="oe" unicode="&#x153;" horiz-adv-x="1025" 
d="M577 244q0 -107 -77 -180t-190 -73q-111 0 -188.5 74t-77.5 179q0 106 77 179t189 73t189.5 -73t77.5 -179zM448 244q0 57 -42 94.5t-96 37.5q-55 0 -96 -37.5t-41 -94.5q0 -58 41 -94.5t96 -36.5q54 0 96 37.5t42 93.5zM981 198h-405q6 -32 44 -61.5t93 -29.5
q67 -3 116 36l84 -84q-89 -68 -199 -68q-111 0 -188.5 75t-77.5 181t77 179t189 73q117 0 191 -86t76 -215zM840 310q-12 27 -47 50t-81 23q-50 -1 -87 -24t-45 -49h260z" />
    <glyph glyph-name="Scaron" unicode="&#x160;" horiz-adv-x="755" 
d="M531 836l-98 -137h-112l-97 137h78l75 -75l75 75h79zM691 200q-1 -98 -77.5 -155t-216.5 -57q-193 0 -333 101l73 104q111 -76 256 -77q89 3 131.5 25t43.5 60q3 37 -42 60.5t-141 33.5q-169 18 -226 68.5t-56 130.5q2 86 82 135.5t196 51.5q136 0 268 -79l-70 -102
q-89 52 -207 52q-51 1 -96.5 -12t-43.5 -46q-2 -30 39 -47.5t140 -27.5q156 -14 218 -79t62 -140z" />
    <glyph glyph-name="scaron" unicode="&#x161;" horiz-adv-x="585" 
d="M446 664l-98 -137h-112l-97 137h78l75 -75l75 75h79zM542 144q-1 -76 -62.5 -114.5t-187.5 -38.5q-136 0 -252 59l51 101q97 -48 201 -50q87 2 106.5 11t20.5 31q-2 22 -22.5 31.5t-102.5 18.5q-107 10 -168.5 48t-60.5 104q-2 64 59.5 108.5t167.5 44.5q116 0 225 -56
l-49 -97q-73 38 -176 41q-77 -4 -93 -12t-16 -25q-1 -16 17 -23.5t95 -15.5q128 -11 187 -50.5t60 -115.5z" />
    <glyph glyph-name="Ydieresis" unicode="&#x178;" horiz-adv-x="815" 
d="M361 776q0 -27 -20 -46.5t-48 -19.5q-27 0 -46.5 20t-19.5 46q0 28 19.5 48t46.5 20q28 0 48 -20t20 -48zM588 776q0 -27 -20 -46.5t-48 -19.5q-27 0 -46.5 20t-19.5 46q0 28 19.5 48t46.5 20q28 0 48 -20t20 -48zM788 670l-317 -400v-270h-127v270l-317 400h162
l219 -275l218 275h162z" />
    <glyph glyph-name="Zcaron" unicode="&#x17d;" horiz-adv-x="755" 
d="M691 0h-627v127l442 416h-421v127h606v-127l-441 -416h441v-127zM531 836l-98 -137h-112l-97 137h78l75 -75l75 75h79z" />
    <glyph glyph-name="zcaron" unicode="&#x17e;" horiz-adv-x="585" 
d="M547 0h-510v98l309 273h-293v118h494v-103l-312 -271h312v-115zM446 664l-98 -137h-112l-97 137h78l75 -75l75 75h79z" />
    <glyph glyph-name="florin" unicode="&#x192;" horiz-adv-x="355" 
d="M322 371h-87v-549l-129 -64v613h-73v115h73v65q-3 48 38.5 89t107.5 41q37 0 70 -18v-97q-23 7 -42 7q-45 0 -45 -44v-43h87v-115z" />
    <glyph glyph-name="circumflex" unicode="&#x2c6;" horiz-adv-x="345" 
d="M247 533l-75 75l-75 -75h-78l97 137h112l98 -137h-79z" />
    <glyph glyph-name="tilde" unicode="&#x2dc;" horiz-adv-x="355" 
d="M338 670q-3 -61 -35.5 -90.5t-72.5 -28.5q-12 1 -18 2t-16 4l-56 20q-9 2 -14 3t-14 1q-11 0 -22.5 -11.5t-12.5 -29.5h-59q3 59 31 88t67 29q12 -1 17 -2l15 -3l58 -18q11 -3 16.5 -3.5t14.5 -0.5q15 1 26 11t14 29h61z" />
    <glyph glyph-name="endash" unicode="&#x2013;" horiz-adv-x="555" 
d="M527 282h-500v120h500v-120z" />
    <glyph glyph-name="emdash" unicode="&#x2014;" horiz-adv-x="1055" 
d="M1027 282h-1000v120h1000v-120z" />
    <glyph glyph-name="quoteleft" unicode="&#x2018;" horiz-adv-x="235" 
d="M50 504q1 54 31.5 102t88.5 64v-21q-47 -24 -59 -79h7q27 0 46.5 -20t19.5 -46q0 -28 -19.5 -48t-46.5 -20q-28 0 -48 20t-20 48z" />
    <glyph glyph-name="quoteright" unicode="&#x2019;" horiz-adv-x="235" 
d="M184 602q-1 -54 -31.5 -102t-88.5 -64v21q47 24 59 79h-7q-27 0 -46.5 20t-19.5 46q0 28 19.5 48t46.5 20q28 0 48 -20t20 -48z" />
    <glyph glyph-name="quotedblleft" unicode="&#x201c;" horiz-adv-x="445" 
d="M49 504q1 54 31.5 102t88.5 64v-21q-47 -24 -59 -79h7q27 0 46.5 -20t19.5 -46q0 -28 -19.5 -48t-46.5 -20q-28 0 -48 20t-20 48zM263 504q1 54 31.5 102t88.5 64v-21q-47 -24 -59 -79h7q27 0 46.5 -20t19.5 -46q0 -28 -19.5 -48t-46.5 -20q-28 0 -48 20t-20 48z" />
    <glyph glyph-name="quotedblright" unicode="&#x201d;" horiz-adv-x="445" 
d="M397 602q-1 -54 -31.5 -102t-88.5 -64v21q47 24 59 79h-7q-27 0 -46.5 20t-19.5 46q0 28 19.5 48t46.5 20q28 0 48 -20t20 -48zM183 602q-1 -54 -31.5 -102t-88.5 -64v21q47 24 59 79h-7q-27 0 -46.5 20t-19.5 46q0 28 19.5 48t46.5 20q28 0 48 -20t20 -48z" />
    <glyph glyph-name="quotedblbase" unicode="&#x201e;" horiz-adv-x="445" 
d="M397 54q-1 -54 -31.5 -102t-88.5 -64v21q47 24 59 79h-7q-27 0 -46.5 20t-19.5 46q0 28 19.5 48t46.5 20q28 0 48 -20t20 -48zM183 54q-1 -54 -31.5 -102t-88.5 -64v21q47 24 59 79h-7q-27 0 -46.5 20t-19.5 46q0 28 19.5 48t46.5 20q28 0 48 -20t20 -48z" />
    <glyph glyph-name="dagger" unicode="&#x2020;" horiz-adv-x="455" 
d="M245 445v-553h-39v553h-168v45h168v201h39v-201h171v-45h-171z" />
    <glyph glyph-name="daggerdbl" unicode="&#x2021;" horiz-adv-x="455" 
d="M245 445v-303h171v-46h-171v-204h-39v204h-168v45h168v304h-168v45h168v201h39v-201h171v-45h-171z" />
    <glyph glyph-name="bullet" unicode="&#x2022;" horiz-adv-x="625" 
d="M565 303q0 -107 -73.5 -180t-179.5 -73q-105 0 -178.5 74t-73.5 179q0 106 73 179t179 73q105 0 179 -73t74 -179z" />
    <glyph glyph-name="ellipsis" unicode="&#x2026;" horiz-adv-x="805" 
d="M469 54q0 -27 -20 -46.5t-48 -19.5q-27 0 -46.5 20t-19.5 46q0 28 19.5 48t46.5 20q28 0 48 -20t20 -48zM755 54q0 -27 -20 -46.5t-48 -19.5q-27 0 -46.5 20t-19.5 46q0 28 19.5 48t46.5 20q28 0 48 -20t20 -48zM184 54q0 -27 -20 -46.5t-48 -19.5q-27 0 -46.5 20
t-19.5 46q0 28 19.5 48t46.5 20q28 0 48 -20t20 -48z" />
    <glyph glyph-name="perthousand" unicode="&#x2030;" horiz-adv-x="705" 
d="M675 98h-36q1 25 -17.5 43t-44.5 18t-44.5 -17.5t-18.5 -43.5q0 -25 18.5 -43.5t44.5 -18.5t44.5 18.5t17.5 43.5h36q0 -40 -29 -69t-69 -29t-68.5 29t-28.5 69q0 41 28 69t69 28q39 0 68.5 -28.5t29.5 -68.5zM238 573h-36q1 25 -17.5 43t-44.5 18t-44.5 -17.5
t-18.5 -43.5q0 -25 18.5 -43.5t44.5 -18.5t44.5 18.5t17.5 43.5h36q0 -40 -29 -69t-69 -29t-68.5 29t-28.5 69q0 41 28 69t69 28q39 0 68.5 -28.5t29.5 -68.5zM456 670l-383 -670h-44l384 670h43zM439 98h-36q1 25 -17.5 43t-44.5 18t-44.5 -17.5t-18.5 -43.5
q0 -25 18.5 -43.5t44.5 -18.5t44.5 18.5t17.5 43.5h36q0 -40 -29 -69t-69 -29t-68.5 29t-28.5 69q0 41 28 69t69 28q39 0 68.5 -28.5t29.5 -68.5z" />
    <glyph glyph-name="guilsinglleft" unicode="&#x2039;" horiz-adv-x="275" 
d="M255 501l-116 -205l116 -205h-117l-117 205l117 205h117z" />
    <glyph glyph-name="guilsinglright" unicode="&#x203a;" horiz-adv-x="275" 
d="M138 501l117 -205l-117 -205h-117l116 205l-116 205h117z" />
    <glyph glyph-name="Euro" unicode="&#x20ac;" horiz-adv-x="745" 
d="M451 366h-407v59h407v-59zM451 247h-407v59h407v-59zM701 140q-111 -152 -287 -152q-143 0 -244 101.5t-101 244.5q0 146 101.5 246.5t248.5 100.5q178 -4 280 -148l-104 -72q-74 91 -181 91q-91 0 -154.5 -63t-63.5 -153q0 -92 63.5 -155.5t154.5 -63.5q101 0 181 92z
" />
    <glyph glyph-name="trademark" unicode="&#x2122;" horiz-adv-x="735" 
d="M292 602h-94v-277h-67v277h-94v68h255v-68zM697 325h-72v187l-96 -187l-99 187v-187h-71v345h71l99 -189l96 189h72v-345z" />
    <glyph glyph-name="NULL" horiz-adv-x="0" 
 />
  </font>
</defs>
</svg>
