<?xml version="1.0" standalone="no"?>
<!DOCTYPE svg PUBLIC "-//W3C//DTD SVG 1.1//EN" "http://www.w3.org/Graphics/SVG/1.1/DTD/svg11.dtd" >
<svg xmlns="http://www.w3.org/2000/svg" xmlns:xlink="http://www.w3.org/1999/xlink" version="1.1">
<metadata>
Created by FontForge 20201107 at Sat Sep 18 13:38:31 2010
 By 
2009
</metadata>
<defs>
<font id="HighwayGothicNarrow" horiz-adv-x="435" >
  <font-face 
    font-family="Highway Gothic Narrow"
    font-weight="400"
    font-stretch="normal"
    units-per-em="1000"
    panose-1="0 0 4 0 0 0 0 0 0 0"
    ascent="800"
    descent="-200"
    x-height="489"
    cap-height="670"
    bbox="-23 -243 1001 865"
    underline-thickness="20"
    underline-position="-143"
    unicode-range="U+0020-2122"
  />
<missing-glyph horiz-adv-x="500" 
d="M63 0v800h375v-800h-375zM125 63h250v675h-250v-675z" />
    <glyph glyph-name=".notdef" horiz-adv-x="500" 
d="M63 0v800h375v-800h-375zM125 63h250v675h-250v-675z" />
    <glyph glyph-name=".null" horiz-adv-x="0" 
 />
    <glyph glyph-name="nonmarkingreturn" horiz-adv-x="0" 
 />
    <glyph glyph-name="space" unicode=" " horiz-adv-x="225" 
 />
    <glyph glyph-name="space" unicode="&#xa0;" horiz-adv-x="225" 
 />
    <glyph glyph-name="exclam" unicode="!" horiz-adv-x="205" 
d="M156 670v-234l-20 -263h-69l-19 263v234h108zM156 48q0 -21 -16.5 -37.5t-37.5 -16.5t-37.5 16.5t-16.5 37.5t16.5 37.5t37.5 16.5t37.5 -16.5t16.5 -37.5z" />
    <glyph glyph-name="quotedbl" unicode="&#x22;" 
d="M362 670l-17 -271h-70l-17 271h104zM176 670l-16 -271h-71l-16 271h103z" />
    <glyph glyph-name="numbersign" unicode="#" horiz-adv-x="590" 
d="M550 482l-12 -83h-96l-14 -117h94l-12 -82h-96l-29 -200h-87l29 200h-106l-28 -200h-83l29 200h-99l12 82h96l16 117h-96l12 83h96l26 188h87l-28 -188h106l25 188h87l-25 -188h96zM355 399h-106l-14 -117h103z" />
    <glyph glyph-name="dollar" unicode="$" horiz-adv-x="455" 
d="M267 1v-114h-80v114h80zM268 754v-114h-80v114h80zM413 188q0 -79 -49 -139.5t-135 -60.5q-79 0 -133.5 61.5t-54.5 147.5h92q0 -53 26.5 -84t67.5 -31q38 0 66 30.5t27 71.5q-1 33 -24.5 69.5t-86.5 76.5q-72 46 -105 91.5t-33 85.5q-1 72 46 122.5t120 51.5
q77 0 126.5 -50.5t49.5 -122.5h-98q1 39 -24.5 61t-53.5 20q-33 -2 -51 -24.5t-17 -54.5q1 -21 18 -41t74 -60q80 -54 115.5 -106t36.5 -115z" />
    <glyph glyph-name="percent" unicode="%" horiz-adv-x="475" 
d="M434 98h-36q1 25 -17.5 43t-44.5 18t-44.5 -17.5t-18.5 -43.5q0 -25 18.5 -43.5t44.5 -18.5t44.5 18.5t17.5 43.5h36q0 -40 -29 -69t-69 -29t-68.5 29t-28.5 69q0 41 28 69t69 28q39 0 68.5 -28.5t29.5 -68.5zM233 573h-36q1 25 -17.5 43t-44.5 18t-44.5 -17.5
t-18.5 -43.5q0 -25 18.5 -43.5t44.5 -18.5t44.5 18.5t17.5 43.5h36q0 -40 -29 -69t-69 -29t-68.5 29t-28.5 69q0 41 28 69t69 28q39 0 68.5 -28.5t29.5 -68.5zM451 670l-383 -670h-44l384 670h43z" />
    <glyph glyph-name="ampersand" unicode="&#x26;" horiz-adv-x="485" 
d="M447 0h-106l-16 35q-48 -47 -124 -47q-71 0 -117 54t-46 141q0 71 27.5 131t60.5 106l-17 41q-16 37 -18 82q1 68 35 103t88 35q53 0 89 -36t34 -105h-83q3 58 -37 57q-40 0 -40 -55q1 -48 32 -104l118 -214q10 60 9 110h88q-1 -66 -7.5 -117t-25.5 -108zM274 113
l-110 204q-19 -24 -29 -57.5t-11 -75.5q0 -43 22 -77t61 -36q46 1 67 42z" />
    <glyph glyph-name="quotesingle" unicode="'" horiz-adv-x="255" 
d="M179 670l-16 -271h-71l-16 271h103z" />
    <glyph glyph-name="parenleft" unicode="(" horiz-adv-x="285" 
d="M244 -77h-87q-115 162 -115 385q0 218 115 380h87q-38 -61 -61 -106q-54 -115 -54 -277q0 -144 59 -279q16 -36 56 -103z" />
    <glyph glyph-name="parenright" unicode=")" horiz-adv-x="285" 
d="M42 -77q40 67 56 103q59 135 59 279q0 162 -54 277q-23 45 -61 106h87q115 -162 115 -380q0 -223 -115 -385h-87v0z" />
    <glyph glyph-name="asterisk" unicode="*" horiz-adv-x="455" 
d="M402 505l-112 -28l75 -89l-68 -52l-69 94l-68 -94l-68 54l73 89l-113 26l26 85l110 -38l-4 118h87l-5 -118l110 35z" />
    <glyph glyph-name="plus" unicode="+" horiz-adv-x="475" 
d="M446 294h-165v-162h-90v162h-161v91h161v163h90v-163h165v-91z" />
    <glyph glyph-name="comma" unicode="," horiz-adv-x="205" 
d="M156 47q0 -55 -26 -90t-77 -48v16q48 28 55 68h-6q-21 0 -37.5 16.5t-16.5 37.5t16.5 37.5t37.5 16.5t37.5 -16.5t16.5 -37.5z" />
    <glyph glyph-name="comma" unicode="&#x201a;" horiz-adv-x="205" 
d="M156 47q0 -55 -26 -90t-77 -48v16q48 28 55 68h-6q-21 0 -37.5 16.5t-16.5 37.5t16.5 37.5t37.5 16.5t37.5 -16.5t16.5 -37.5z" />
    <glyph glyph-name="hyphen" unicode="-" horiz-adv-x="265" 
d="M237 294h-208v91h208v-91z" />
    <glyph glyph-name="hyphen" unicode="&#xad;" horiz-adv-x="265" 
d="M237 294h-208v91h208v-91z" />
    <glyph glyph-name="period" unicode="." horiz-adv-x="205" 
d="M156 47q0 -23 -16 -38.5t-38 -15.5q-21 0 -37.5 16.5t-16.5 37.5t16.5 37.5t37.5 16.5t37.5 -16.5t16.5 -37.5z" />
    <glyph glyph-name="slash" unicode="/" horiz-adv-x="436" 
d="M436 670l-349 -670h-87l346 670h90z" />
    <glyph glyph-name="zero" unicode="0" horiz-adv-x="465" 
d="M232 -12q-103 0 -151 86.5t-48 260.5q0 172 48 259t151 87t151 -87t48 -259q0 -174 -48 -260.5t-151 -86.5zM232 82q55 -1 79 61t24 194q0 130 -24 190t-79 60t-79 -60t-24 -190q0 -132 24 -194t79 -61z" />
    <glyph glyph-name="one" unicode="1" horiz-adv-x="275" 
d="M213 0h-94v551h-57v76q52 1 81 43h70v-670z" />
    <glyph glyph-name="two" unicode="2" horiz-adv-x="455" 
d="M414 0h-374q1 87 52 197.5t154 198.5q37 30 56.5 56t19.5 49q0 31 -27.5 58.5t-66.5 27.5t-66.5 -27.5t-27.5 -66.5h-94q2 74 55.5 131t132.5 57q77 0 131.5 -50t54.5 -126q0 -52 -27.5 -92.5t-66.5 -75.5q-53 -49 -101 -112.5t-64 -130.5h259v-94z" />
    <glyph glyph-name="three" unicode="3" horiz-adv-x="455" 
d="M414 181q0 -83 -52.5 -138t-133.5 -55t-133 52.5t-55 135.5h94q4 -41 30 -67.5t64 -26.5q40 0 67 28.5t27 70.5q0 53 -26 91t-61 38h-26v94h20q36 1 56 28.5t20 70.5q0 39 -21 61.5t-56 22.5q-30 0 -50 -19t-23 -51h-93q5 72 52 118t114 46q72 0 120.5 -49.5t48.5 -127.5
q-1 -103 -66 -146q82 -49 83 -177z" />
    <glyph glyph-name="four" unicode="4" horiz-adv-x="485" 
d="M448 162h-44v-162h-97v162h-270v84l277 424h90v-419h44v-89zM307 252v239l-156 -239h156z" />
    <glyph glyph-name="five" unicode="5" horiz-adv-x="455" 
d="M412 239q0 -104 -62.5 -177.5t-148.5 -73.5q-97 1 -155 40l54 80q44 -25 96 -24q51 5 86.5 49t34.5 107q0 47 -26 82t-72 35q-43 -3 -69 -43h-85l5 356h315v-94h-224l-2 -141q31 15 69 15q84 -1 134 -62t50 -149z" />
    <glyph glyph-name="six" unicode="6" horiz-adv-x="455" 
d="M40 227q2 115 67 237.5t171 216.5l55 -72q-98 -93 -150 -206q17 8 39 8q90 -3 141 -60t51 -154q0 -96 -51 -152.5t-137 -56.5q-84 0 -135 59.5t-51 179.5zM132 206q0 -56 26 -90t68 -34q44 0 69 31t25 84q0 54 -25 85.5t-69 31.5q-42 0 -68 -29.5t-26 -78.5z" />
    <glyph glyph-name="seven" unicode="7" horiz-adv-x="455" 
d="M414 576q-173 -286 -187 -576h-96q21 300 168 576h-259v94h374v-94z" />
    <glyph glyph-name="eight" unicode="8" horiz-adv-x="455" 
d="M414 203q0 -93 -49.5 -154.5t-136.5 -60.5q-88 0 -138 66t-50 143q1 113 70 168q-59 44 -61 138q0 78 50 128t129 50q77 0 126.5 -50t49.5 -128q-1 -95 -57 -137q66 -48 67 -163zM310 503q0 37 -23.5 60.5t-58.5 23.5q-37 0 -61 -23.5t-24 -60.5q0 -40 24 -64.5t61 -24.5
q36 0 59 24.5t23 64.5zM322 197q0 54 -26 86t-68 32t-68 -32t-26 -86q0 -51 26 -83t68 -32t68 32t26 83z" />
    <glyph glyph-name="nine" unicode="9" horiz-adv-x="455" 
d="M414 442q-2 -115 -67 -237.5t-171 -216.5l-55 72q98 93 150 206q-17 -8 -39 -8q-90 3 -141 60t-51 154q0 96 51 152.5t137 56.5q84 0 135 -59.5t51 -179.5zM322 463q0 56 -26 90t-68 34q-44 0 -69 -31t-25 -84q0 -54 25 -85.5t69 -31.5q42 0 68 29.5t26 78.5z" />
    <glyph glyph-name="colon" unicode=":" horiz-adv-x="205" 
d="M156 447q0 -23 -16 -38.5t-38 -15.5q-21 0 -37.5 16.5t-16.5 37.5t16.5 37.5t37.5 16.5t37.5 -16.5t16.5 -37.5zM156 47q0 -23 -16 -38.5t-38 -15.5q-21 0 -37.5 16.5t-16.5 37.5t16.5 37.5t37.5 16.5t37.5 -16.5t16.5 -37.5z" />
    <glyph glyph-name="semicolon" unicode=";" horiz-adv-x="205" 
d="M156 47q0 -55 -26 -90t-77 -48v16q48 28 55 68h-6q-21 0 -37.5 16.5t-16.5 37.5t16.5 37.5t37.5 16.5t37.5 -16.5t16.5 -37.5zM156 447q0 -23 -16 -38.5t-38 -15.5q-21 0 -37.5 16.5t-16.5 37.5t16.5 37.5t37.5 16.5t37.5 -16.5t16.5 -37.5z" />
    <glyph glyph-name="less" unicode="&#x3c;" horiz-adv-x="584" 
d="M55 313v82l474 200v-87l-376 -154l376 -156v-88z" />
    <glyph glyph-name="equal" unicode="=" horiz-adv-x="475" 
d="M456 378h-435v94h435v-94zM456 207h-435v94h435v-94z" />
    <glyph glyph-name="greater" unicode="&#x3e;" horiz-adv-x="584" 
d="M55 110v88l376 156l-376 154v87l474 -200v-82z" />
    <glyph glyph-name="question" unicode="?" 
d="M271 47q0 -23 -16 -38.5t-38 -15.5q-21 0 -37.5 16.5t-16.5 37.5t16.5 37.5t37.5 16.5t37.5 -16.5t16.5 -37.5zM389 507q-1 -36 -15 -75.5t-38 -76.5q-23 -35 -50 -90t-28 -97h-86q0 45 18 92.5t50 95.5q35 54 48.5 87t13.5 60q1 35 -20.5 61.5t-61.5 26.5
q-33 0 -57 -22.5t-31 -61.5h-87q7 77 55 125t120 50q76 0 122.5 -48.5t46.5 -126.5z" />
    <glyph glyph-name="at" unicode="@" horiz-adv-x="705" 
d="M500 245q-2 -30 25 -30q32 0 62 52.5t30 111.5q0 103 -68 167t-177 64q-117 0 -196.5 -81.5t-79.5 -200.5q0 -118 74.5 -195t201.5 -77q107 0 191 36l19 -71q-87 -35 -207 -35q-157 0 -255.5 91t-98.5 252q0 148 100 250t244 102q140 0 229 -84t89 -214
q0 -92 -48.5 -162.5t-113.5 -70.5q-58 -1 -85 45q-42 -25 -98 -25q-66 0 -100.5 32t-34.5 82q0 52 38 87t97 35q40 0 76 -11q2 44 -59 44q-47 0 -91 -23l-35 70q67 35 126 35q145 0 145 -140v-136zM414 268v48q-41 11 -76 11q-21 0 -36 -11t-15 -27t17.5 -27.5t41.5 -11.5
q36 0 68 18z" />
    <glyph glyph-name="A" unicode="A" horiz-adv-x="465" 
d="M447 0h-97l-47 183h-143l-45 -183h-96l167 670h94zM280 277l-49 193l-47 -193h96z" />
    <glyph glyph-name="B" unicode="B" horiz-adv-x="455" 
d="M416 188q-1 -92 -53 -140t-131 -48h-192v670h192q79 0 126 -49.5t46 -130.5q1 -102 -72 -148q83 -40 84 -154zM310 490q-1 39 -22.5 63.5t-51.5 24.5h-101v-183h101q31 0 53 27.5t21 67.5zM323 187q0 43 -26 74t-67 32h-96v-209h97q38 2 65 31t27 72z" />
    <glyph glyph-name="C" unicode="C" horiz-adv-x="455" 
d="M40 334q0 195 58.5 271t141.5 76q72 0 121 -47.5t53 -121.5h-97q-1 34 -23 54.5t-57 20.5q-40 0 -70 -48.5t-30 -204.5q0 -163 30.5 -209t69.5 -44q35 0 57 20.5t23 54.5h97q-4 -74 -53 -121.5t-121 -47.5q-83 0 -141.5 76t-58.5 271z" />
    <glyph glyph-name="D" unicode="D" horiz-adv-x="455" 
d="M415 335q0 -162 -52.5 -248.5t-155.5 -86.5h-166v670h166q103 0 155.5 -86.5t52.5 -248.5zM322 337q0 127 -32.5 183.5t-86.5 56.5h-69v-241v-241h69q54 0 86.5 56.5t32.5 185.5z" />
    <glyph glyph-name="E" unicode="E" horiz-adv-x="455" 
d="M398 0h-341v670h315v-94h-219v-169h139v-92h-139v-221h245v-94z" />
    <glyph glyph-name="F" unicode="F" horiz-adv-x="455" 
d="M398 576h-245v-169h134v-92h-134v-315h-96v670h341v-94z" />
    <glyph glyph-name="G" unicode="G" horiz-adv-x="455" 
d="M415 237q0 -116 -42.5 -182.5t-124.5 -66.5q-103 0 -155 79.5t-52 266.5q2 194 59.5 270.5t140.5 76.5q72 0 121 -47.5t53 -121.5h-97q-1 34 -23 54.5t-57 20.5q-40 1 -68 -37.5t-32 -215.5q1 -168 32 -211.5t74 -40.5q38 -2 57.5 34.5t16.5 113.5h-75v94h172v-87z" />
    <glyph glyph-name="H" unicode="H" horiz-adv-x="465" 
d="M420 0h-97v303h-183v-303h-96v670h96v-273h183v273h97v-670z" />
    <glyph glyph-name="I" unicode="I" horiz-adv-x="245" 
d="M169 0h-94v670h94v-670z" />
    <glyph glyph-name="J" unicode="J" horiz-adv-x="455" 
d="M414 188q0 -85 -50.5 -142.5t-135.5 -57.5q-57 0 -110.5 37.5t-76.5 116.5l96 27q27 -88 91 -87q39 0 64 29.5t25 76.5v482h97v-482z" />
    <glyph glyph-name="K" unicode="K" horiz-adv-x="455" 
d="M416 0h-101l-118 327l-61 -103v-224h-96v670h96v-268l157 268h106l-138 -235z" />
    <glyph glyph-name="L" unicode="L" horiz-adv-x="455" 
d="M398 0h-341v670h96v-576h245v-94z" />
    <glyph glyph-name="M" unicode="M" horiz-adv-x="555" 
d="M499 0h-97v376l-124 -376l-125 376v-376h-96v670h96l125 -376l124 376h97v-670z" />
    <glyph glyph-name="N" unicode="N" horiz-adv-x="465" 
d="M420 0h-93l-187 426v-426h-96v670h96l183 -420v420h97v-670z" />
    <glyph glyph-name="O" unicode="O" horiz-adv-x="465" 
d="M232 -12q-103 0 -151 86.5t-48 260.5q0 172 48 259t151 87t151 -87t48 -259q0 -174 -48 -260.5t-151 -86.5zM232 82q55 -1 79 61t24 194q0 130 -24 190t-79 60t-79 -60t-24 -190q0 -132 24 -194t79 -61z" />
    <glyph glyph-name="P" unicode="P" horiz-adv-x="475" 
d="M332 494q0 38 -24 60t-63 22h-99v-165h99q36 0 61.5 24t25.5 59zM238 315h-92v-315h-96v670h200q79 0 127.5 -49t48.5 -130q-1 -72 -47.5 -124t-140.5 -52z" />
    <glyph glyph-name="Q" unicode="Q" horiz-adv-x="465" 
d="M232 -12q-103 0 -151 86.5t-48 260.5q0 172 48 259t151 87t151 -87t48 -259q-2 -197 -59 -276l44 -71l-75 -54l-41 67q-33 -13 -68 -13zM237 82q8 1 16 5l-49 85l71 49l35 -59q24 45 25 175q0 130 -24 190t-79 60t-79 -60t-24 -190q0 -132 24 -194t84 -61z" />
    <glyph glyph-name="R" unicode="R" horiz-adv-x="475" 
d="M426 0h-99l-89 315h-92v-315h-96v670h200q79 0 127.5 -49t48.5 -130q0 -53 -26.5 -99.5t-70.5 -62.5zM332 494q0 38 -24 60t-63 22h-99v-165h99q36 0 61.5 24t25.5 59z" />
    <glyph glyph-name="S" unicode="S" horiz-adv-x="455" 
d="M413 188q0 -79 -49 -139.5t-135 -60.5q-79 0 -133.5 61.5t-54.5 147.5h92q0 -53 26.5 -84t67.5 -31q38 0 66 30.5t27 71.5q-1 33 -24.5 69.5t-86.5 76.5q-72 46 -105 91.5t-33 85.5q-1 72 46 122.5t120 51.5q77 0 126.5 -50.5t49.5 -122.5h-98q1 39 -24.5 61t-53.5 20
q-33 -2 -51 -24.5t-17 -54.5q1 -21 18 -41t74 -60q80 -54 115.5 -106t36.5 -115z" />
    <glyph glyph-name="T" unicode="T" horiz-adv-x="405" 
d="M373 580h-122v-580h-97v580h-122v90h341v-90z" />
    <glyph glyph-name="U" unicode="U" horiz-adv-x="455" 
d="M416 200q0 -73 -26 -118q-24 -41 -68.5 -67.5t-91.5 -26.5q-49 0 -94.5 26t-69.5 68q-26 46 -26 118v470h96v-482q0 -48 26 -77t68 -29q39 0 64 29.5t25 76.5v482h97v-470z" />
    <glyph glyph-name="V" unicode="V" horiz-adv-x="455" 
d="M435 670l-167 -670h-83l-164 670h96l110 -436l111 436h97z" />
    <glyph glyph-name="W" unicode="W" horiz-adv-x="545" 
d="M527 670l-108 -670h-83l-63 350l-64 -350h-84l-106 670h94l57 -357l65 357h76l63 -357l59 357h94z" />
    <glyph glyph-name="X" unicode="X" horiz-adv-x="445" 
d="M419 0h-104l-94 228l-94 -228h-101l145 348l-135 322h101l84 -202l85 202h101l-133 -322z" />
    <glyph glyph-name="Y" unicode="Y" horiz-adv-x="455" 
d="M442 670l-167 -367v-303h-96v303l-165 367h101l113 -242l110 242h104z" />
    <glyph glyph-name="Z" unicode="Z" horiz-adv-x="455" 
d="M412 0h-369v90l259 488h-233v94h343v-91l-263 -489h263v-92z" />
    <glyph glyph-name="bracketleft" unicode="[" horiz-adv-x="275" 
d="M38 692h198v-73h-128v-709h128v-73h-198v855z" />
    <glyph glyph-name="backslash" unicode="\" horiz-adv-x="436" 
d="M90 670l346 -670h-87l-349 670h90z" />
    <glyph glyph-name="bracketright" unicode="]" horiz-adv-x="275" 
d="M236 -163h-198v73h128v709h-128v73h198v-855z" />
    <glyph glyph-name="asciicircum" unicode="^" horiz-adv-x="475" 
d="M120 337h-91l173 391h71l173 -391h-89l-120 291z" />
    <glyph glyph-name="underscore" unicode="_" horiz-adv-x="556" 
d="M-15 -199v64h582v-64h-582z" />
    <glyph glyph-name="grave" unicode="`" horiz-adv-x="195" 
d="M16 670h111l53 -107h-57z" />
    <glyph glyph-name="a" unicode="a" 
d="M376 0h-89v21q-21 -28 -77 -30q-70 0 -111 39t-41 123q0 83 42 130t105 47q43 1 82 -19q3 100 -71 102q-53 -2 -89 -40l-57 57q68 70 150 71q156 0 156 -186v-315zM283 121v101q-30 20 -68 20q-28 0 -47.5 -19.5t-19.5 -64.5q0 -44 17.5 -64t49.5 -20q48 0 68 47z" />
    <glyph glyph-name="b" unicode="b" 
d="M142 681v-213q37 33 87 33q160 0 160 -254q0 -256 -172 -259q-45 0 -75 28v-16h-96v633zM145 131q20 -53 72 -53q76 -1 78 169q0 164 -75 164q-51 1 -75 -49v-231z" />
    <glyph glyph-name="c" unicode="c" horiz-adv-x="395" 
d="M291 360q-29 45 -74 47q-38 1 -60.5 -40.5t-22.5 -121.5q1 -100 27.5 -132.5t57.5 -30.5q38 -1 72 45l61 -61q-55 -75 -133 -75q-85 0 -129 63.5t-46 192.5q0 103 42 178.5t127 75.5q93 -1 137 -82z" />
    <glyph glyph-name="d" unicode="d" 
d="M389 681v-681h-96v16q-30 -28 -75 -28q-172 3 -172 259q0 254 160 254q50 0 87 -33v165zM290 131v231q-24 50 -75 49q-75 0 -75 -164q2 -170 78 -169q52 0 72 53z" />
    <glyph glyph-name="e" unicode="e" 
d="M385 207h-244q1 -69 26.5 -98.5t57.5 -27.5q38 -2 69 46l58 -58q-52 -78 -130 -78q-85 0 -129 63.5t-46 192.5q1 107 42 180.5t127 73.5q84 0 128.5 -82.5t40.5 -211.5zM291 291q1 54 -18 88.5t-57 34.5q-36 0 -56.5 -30.5t-20.5 -92.5h152z" />
    <glyph glyph-name="f" unicode="f" horiz-adv-x="255" 
d="M231 399h-59v-399h-94v399h-54v90h54v84q0 48 22 78t63 30q39 0 68 -22v-74q-12 7 -29 7q-30 0 -30 -33v-70h59v-90z" />
    <glyph glyph-name="g" unicode="g" 
d="M389 496v-476q-6 -194 -190 -262l-45 75q140 57 139 183q-30 -28 -75 -28q-172 3 -172 259q0 254 160 254q50 0 87 -33v28h96zM290 131v231q-24 50 -75 49q-75 0 -75 -164q2 -170 78 -169q52 0 72 53z" />
    <glyph glyph-name="h" unicode="h" 
d="M387 0h-94v336q0 35 -20.5 57t-53.5 22q-31 0 -53.5 -21.5t-22.5 -57.5v-336h-94v635l92 46v-213q39 35 89 35q67 0 112 -44t45 -123v-336z" />
    <glyph glyph-name="i" unicode="i" horiz-adv-x="215" 
d="M155 630q0 -20 -14 -33.5t-35 -13.5q-19 0 -33 13.5t-14 33.5q0 21 14 35t33 14q21 0 35 -14t14 -35zM59 0v498h96v-498h-96z" />
    <glyph glyph-name="j" unicode="j" horiz-adv-x="215" 
d="M155 630q0 -20 -14 -33.5t-35 -13.5q-19 0 -33 13.5t-14 33.5q0 21 14 35t33 14q21 0 35 -14t14 -35zM155 0q-9 -160 -132 -243l-42 83q69 61 78 160v498h96v-498z" />
    <glyph glyph-name="k" unicode="k" 
d="M400 0h-101l-117 275l-52 -64v-211h-94v634l94 47v-328l113 136h113l-108 -134z" />
    <glyph glyph-name="l" unicode="l" horiz-adv-x="215" 
d="M155 0h-96v633l96 48v-681z" />
    <glyph glyph-name="m" unicode="m" horiz-adv-x="665" 
d="M609 0h-95v336q0 36 -18.5 56t-48.5 22q-30 -1 -49.5 -20t-19.5 -58v-336h-92v336q0 36 -21.5 56.5t-48.5 20.5q-32 0 -49 -21.5t-18 -55.5v-336h-92v498h90v-37q30 38 95 40q62 0 104 -59q34 59 105 59q73 -2 115 -48.5t43 -116.5v-336z" />
    <glyph glyph-name="n" unicode="n" 
d="M387 0h-94v336q0 35 -20.5 57t-53.5 22q-31 0 -53.5 -21.5t-22.5 -57.5v-336h-94v498h92v-30q39 35 89 35q67 0 112 -44t45 -123v-336z" />
    <glyph glyph-name="o" unicode="o" 
d="M386 247q0 -117 -42 -186.5t-127 -69.5q-82 0 -125 66t-44 190q1 126 45 190t124 64q84 0 126.5 -63.5t42.5 -190.5zM296 249q-2 88 -23 125.5t-56 36.5q-36 0 -56.5 -37.5t-20.5 -128.5q1 -89 20.5 -129t56.5 -38q40 0 58.5 41.5t20.5 129.5z" />
    <glyph glyph-name="p" unicode="p" 
d="M142 496v-28q37 33 87 33q160 0 160 -254q0 -256 -172 -259q-45 0 -75 28v-210l-96 -48v738h96zM145 131q20 -53 72 -53q76 -1 78 169q0 164 -75 164q-51 1 -75 -49v-231z" />
    <glyph glyph-name="q" unicode="q" 
d="M389 496v-690l-96 -48v258q-30 -28 -75 -28q-172 3 -172 259q0 254 160 254q50 0 87 -33v28h96zM290 131v231q-24 50 -75 49q-75 0 -75 -164q2 -170 78 -169q52 0 72 53z" />
    <glyph glyph-name="r" unicode="r" horiz-adv-x="295" 
d="M285 474l-24 -90q-16 25 -47 25q-61 0 -61 -80v-329h-92v498h92v-29q21 32 64 32q38 0 68 -27z" />
    <glyph glyph-name="s" unicode="s" horiz-adv-x="335" 
d="M311 133q-2 -58 -42 -100t-100 -42q-90 1 -146 87l62 62q41 -60 85 -60q22 -1 38.5 15t15.5 38q1 25 -23 52t-68 53q-47 27 -71 58.5t-24 79.5q-1 50 35.5 87.5t88.5 37.5q83 -2 139 -80l-56 -56q-35 48 -84 49q-15 0 -24 -10t-10 -25q1 -18 12.5 -32.5t51.5 -38.5
q74 -49 97 -89.5t23 -85.5z" />
    <glyph glyph-name="t" unicode="t" horiz-adv-x="285" 
d="M258 102l-24 -99q-24 -14 -53 -15q-46 0 -70 31.5t-23 73.5v306h-63v90h63v145l94 47v-192h78v-90h-78v-285q3 -35 33 -35q23 0 43 23z" />
    <glyph glyph-name="u" unicode="u" 
d="M48 498h94v-336q0 -35 20.5 -57t53.5 -22q31 0 53.5 21.5t22.5 57.5v336h94v-498h-92v30q-39 -35 -89 -35q-67 0 -112 44t-45 123v336z" />
    <glyph glyph-name="v" unicode="v" horiz-adv-x="425" 
d="M409 489l-158 -489h-77l-158 489h94l101 -329l99 329h99z" />
    <glyph glyph-name="w" unicode="w" horiz-adv-x="615" 
d="M602 489l-106 -489h-94l-94 324l-97 -324h-96l-101 489h97l59 -299l89 299h94l91 -299l68 299h90z" />
    <glyph glyph-name="x" unicode="x" 
d="M435 0h-111l-108 181l-108 -181h-108l164 270l-133 219h110l75 -127l78 127h105l-129 -216z" />
    <glyph glyph-name="y" unicode="y" 
d="M423 489l-237 -731h-100l78 259l-153 472h102l104 -303l105 303h101z" />
    <glyph glyph-name="z" unicode="z" horiz-adv-x="335" 
d="M307 404l-175 -315h175v-89h-280v75l179 324h-162v90h263v-85z" />
    <glyph glyph-name="braceleft" unicode="{" horiz-adv-x="335" 
d="M26 299q76 2 93 73q7 34 8 115q0 37 3 108q11 106 91 128q17 5 60 5h28v-77h-16q-54 0 -70 -23q-14 -19 -14 -77q0 -129 -5 -161q-8 -51 -29.5 -80t-67.5 -51q65 -27 87 -90q15 -44 15 -130q0 -96 2 -113q5 -37 25 -50q17 -10 57 -10h16v-76h-28q-47 0 -69 7
q-66 24 -79 100q-3 24 -3 102t-6 116q-9 61 -37 84q-24 19 -61 20v80z" />
    <glyph glyph-name="bar" unicode="|" horiz-adv-x="205" 
d="M77 -210v938h50v-938h-50z" />
    <glyph glyph-name="braceright" unicode="}" horiz-adv-x="335" 
d="M309 219q-37 -1 -61 -20q-28 -23 -37 -84q-6 -38 -6 -116t-3 -102q-13 -76 -79 -100q-22 -7 -69 -7h-28v76h16q40 0 57 10q20 13 25 50q2 17 2 113q0 86 15 130q22 63 87 90q-46 22 -67.5 51t-29.5 80q-5 32 -5 161q0 58 -14 77q-16 23 -70 23h-16v77h28q43 0 60 -5
q80 -22 91 -128q3 -71 3 -108q1 -81 8 -115q17 -71 93 -73v-80z" />
    <glyph glyph-name="asciitilde" unicode="~" horiz-adv-x="584" 
d="M42 272v100q52 59 136 59q53 0 154 -43q54 -23 84 -23q65 0 126 67v-103q-59 -56 -135 -56q-52 0 -141 40q-58 25 -96 25q-59 0 -128 -66z" />
    <glyph glyph-name="exclamdown" unicode="&#xa1;" horiz-adv-x="205" 
d="M48 -6v234l19 263h69l20 -263v-234h-108zM156 616q0 -21 -16.5 -37.5t-37.5 -16.5t-37.5 16.5t-16.5 37.5t16.5 37.5t37.5 16.5t37.5 -16.5t16.5 -37.5z" />
    <glyph glyph-name="cent.001" unicode="&#xa2;" horiz-adv-x="395" 
d="M194 0v670h39v-670h-39zM290 446q-29 45 -74 47q-38 1 -60.5 -40.5t-22.5 -121.5q1 -100 27.5 -132.5t57.5 -30.5q38 -1 72 45l61 -61q-55 -75 -133 -75q-85 0 -129 63.5t-46 192.5q0 103 42 178.5t127 75.5q93 -1 137 -82z" />
    <glyph glyph-name="sterling" unicode="&#xa3;" 
d="M73 407h43v116q0 60 38.5 103.5t93.5 43.5q66 0 106 -41t40 -101h-92q1 23 -13.5 36.5t-34.5 14.5q-21 0 -34 -14t-13 -41v-117h88v-84h-88v-74q-1 -88 -45 -162h232v-87h-354v87h17q59 69 59 170v66h-43v84z" />
    <glyph glyph-name="currency" unicode="&#xa4;" horiz-adv-x="555" 
d="M105 469l-68 67l56 58l68 -68q52 35 116 35t116 -35l67 68l57 -58l-68 -67q35 -53 35 -115q0 -61 -35 -115l68 -66l-57 -58l-67 68q-52 -36 -116 -36t-116 36l-68 -68l-56 58l68 66q-35 54 -35 115q0 62 35 115zM150 354q0 -52 37 -89t89 -37q53 0 90 37t37 89
q0 53 -37 90t-90 37q-52 0 -89 -37t-37 -90z" />
    <glyph glyph-name="yen" unicode="&#xa5;" horiz-adv-x="455" 
d="M442 670l-167 -367v-303h-96v303l-165 367h101l113 -242l110 242h104zM442 212h-428v91h428v-91z" />
    <glyph glyph-name="brokenbar" unicode="&#xa6;" horiz-adv-x="205" 
d="M128 728v-386h-50v386h50zM128 176v-386h-50v386h50z" />
    <glyph glyph-name="section" unicode="&#xa7;" horiz-adv-x="335" 
d="M311 67q-2 -58 -42 -100t-100 -42q-90 1 -146 87l62 62q41 -60 85 -60q22 -1 38.5 15t15.5 38q1 25 -23 52t-68 53q-47 27 -71 58.5t-24 79.5q-1 81 58 124q-10 11 -34 42.5t-24 79.5q-1 50 35.5 87.5t88.5 37.5q83 -2 139 -80l-56 -56q-35 48 -84 49q-15 0 -24 -10
t-10 -25q1 -18 12.5 -32.5t51.5 -38.5q74 -49 97 -89.5t23 -85.5q-2 -74 -55 -117q20 -18 37.5 -51t17.5 -78zM196 246q14 12 23 27.5t8 40.5q-6 24 -20.5 38t-47.5 36q-16 -14 -24 -30.5t-7 -40.5q3 -21 17 -35.5t51 -35.5z" />
    <glyph glyph-name="dieresis" unicode="&#xa8;" horiz-adv-x="355" 
d="M146 621q0 -20 -14.5 -35t-35.5 -15q-19 0 -34 15t-15 35t14.5 34.5t34.5 14.5q21 0 35.5 -14t14.5 -35zM309 621q0 -20 -14.5 -35t-35.5 -15q-19 0 -34 15t-15 35t14.5 34.5t34.5 14.5q21 0 35.5 -14t14.5 -35z" />
    <glyph glyph-name="exclamdown.001" unicode="&#xa9;" horiz-adv-x="745" 
d="M372 681q91 0 172.5 -46t124.5 -125q47 -82 47 -173t-46.5 -172.5t-127.5 -126t-170 -44.5q-92 0 -173 46.5t-126 127t-45 169.5q0 93 47.5 175t129 125.5t167.5 43.5zM372 625q-76 0 -143 -39t-105 -105q-38 -69 -38 -144q0 -77 39 -144t106.5 -105t140.5 -38
q76 0 143.5 39.5t105 106.5t37.5 141q0 78 -39.5 146t-107.5 105t-139 37zM482 282l56 -17q-14 -59 -58.5 -92t-107.5 -33q-85 0 -134 56q-46 53 -46 140q0 125 88 172q41 22 96 22q124 0 155 -107l-54 -13q-28 70 -103 70q-59 0 -91 -44q-29 -39 -29 -101q0 -61 27 -99
q30 -42 89 -42q41 0 72 24t40 64z" />
    <glyph glyph-name="cent" unicode="&#xaa;" horiz-adv-x="275" 
d="M242 351h-59v16q-23 -21 -50 -21q-47 0 -73.5 25.5t-26.5 80.5t27 86t69 31q28 1 54 -13q3 66 -47 68q-32 0 -58 -27l-40 40q40 43 101 44q103 0 103 -122v-208zM180 431v67q-19 13 -42 13q-46 -3 -46 -59q2 -50 44 -50q31 -1 44 29z" />
    <glyph glyph-name="guillemotleft" unicode="&#xab;" horiz-adv-x="515" 
d="M261 501l-116 -205l116 -205h-117l-117 205l117 205h117zM488 501l-116 -205l116 -205h-117l-117 205l117 205h117z" />
    <glyph glyph-name="logicalnot" unicode="&#xac;" horiz-adv-x="525" 
d="M494 161h-91v134h-373v91h464v-225z" />
    <glyph glyph-name="registered" unicode="&#xae;" horiz-adv-x="705" 
d="M353 681q89 0 167.5 -44.5t120.5 -121.5q44 -80 44 -167q0 -89 -44.5 -168t-122.5 -122t-165 -43q-90 0 -168 45t-121.5 123.5t-43.5 164.5q0 90 46 169t124.5 121.5t162.5 42.5zM353 620q-72 0 -135.5 -36.5t-99.5 -99.5q-35 -67 -35 -137q0 -74 36.5 -138.5t100.5 -100
t133 -35.5q73 0 137 37t100.5 101.5t36.5 135.5q0 73 -38.5 138.5t-102.5 100t-133 34.5zM207 164v358h123q51 0 75 -5q41 -9 62 -39q16 -25 16 -53q0 -42 -26 -71q-22 -29 -66 -34l117 -156h-64l-119 152h-61v-152h-57zM264 366h71q39 -1 56 8q33 12 31 46q0 34 -34 48
q-15 6 -58 6h-66v-108z" />
    <glyph glyph-name="macron" unicode="&#xaf;" horiz-adv-x="325" 
d="M31 649h263v-45h-263v45z" />
    <glyph glyph-name="degree" unicode="&#xb0;" horiz-adv-x="375" 
d="M52 535q0 56 38 95q39 40 95 40q58 0 98 -39t40 -96t-40 -96q-41 -40 -98 -40q-56 0 -94 39q-39 40 -39 97zM103 535q0 -35 24 -59q25 -24 58 -24q35 0 59 24q25 25 25 59t-24 58q-25 24 -60 24q-33 0 -57 -24q-25 -24 -25 -58z" />
    <glyph glyph-name="plusminus" unicode="&#xb1;" horiz-adv-x="475" 
d="M446 116v-91h-416v91h416zM446 326h-165v-162h-90v162h-161v91h161v163h90v-163h165v-91z" />
    <glyph glyph-name="twosuperior" unicode="&#xb2;" horiz-adv-x="295" 
d="M253 282h-211q4 66 35.5 128t80.5 103q20 17 31.5 31.5t11.5 31.5q0 18 -16 34t-37 16q-22 0 -38 -16t-16 -39h-52q1 44 30.5 77t75.5 33q44 0 74.5 -29t30.5 -74q0 -30 -15.5 -54t-37.5 -42q-31 -28 -58 -67t-33 -77h144v-56z" />
    <glyph glyph-name="threesuperior" unicode="&#xb3;" horiz-adv-x="295" 
d="M253 394q0 -48 -30 -80t-76 -32t-75.5 30.5t-29.5 78.5h52q2 -24 16.5 -39t36.5 -15q23 0 38 16t15 41q0 30 -14.5 52t-34.5 22h-15v54h11q21 1 32.5 16.5t11.5 40.5q0 22 -12 35t-32 13q-17 0 -28 -11t-13 -29h-53q3 42 29.5 68t64.5 26q41 0 68.5 -28.5t27.5 -72.5
q-1 -60 -38 -84q47 -29 48 -102z" />
    <glyph glyph-name="acute" unicode="&#xb4;" horiz-adv-x="195" 
d="M73 563h-57l53 107h111z" />
    <glyph glyph-name="mu" unicode="&#xb5;" 
d="M48 -155v653h94v-336q0 -35 20.5 -57t53.5 -22q31 0 53.5 21.5t22.5 57.5v336h94v-498l-92 -46v76q-39 -35 -89 -35q-43 -1 -63 26v-129z" />
    <glyph glyph-name="paragraph" unicode="&#xb6;" horiz-adv-x="375" 
d="M142 0v375q-55 3 -89 41q-34 39 -34 104q0 74 41 114q38 36 103 36h194v-62h-45v-608h-52v608h-68v-608h-50z" />
    <glyph glyph-name="periodcentered" unicode="&#xb7;" horiz-adv-x="205" 
d="M156 447q0 -23 -16 -38.5t-38 -15.5q-21 0 -37.5 16.5t-16.5 37.5t16.5 37.5t37.5 16.5t37.5 -16.5t16.5 -37.5z" />
    <glyph glyph-name="cedilla" unicode="&#xb8;" horiz-adv-x="265" 
d="M26 -176v54q30 -9 57 -13.5t47 -4.5q17 0 25 7.5t8 23.5q0 12 -10.5 18t-35.5 6h-12.5h-8.5v85h44v-32h8q42 0 66 -20t24 -58q0 -43 -26 -65t-75 -22q-22 0 -49.5 5.5t-61.5 15.5z" />
    <glyph glyph-name="onesuperior" unicode="&#xb9;" horiz-adv-x="175" 
d="M131 282h-55v333h-33v45q31 3 49 21h39v-399z" />
    <glyph glyph-name="ordmasculine" unicode="&#xba;" horiz-adv-x="295" 
d="M259 515q0 -78 -28 -123.5t-84 -45.5q-55 0 -83 43t-28 126q0 82 29 124t82 42q55 0 83.5 -41.5t28.5 -124.5zM198 511q-1 65 -14 88.5t-35 22.5q-26 1 -39.5 -24t-13.5 -86q1 -61 14.5 -83t37.5 -21q26 -1 38 23.5t12 79.5z" />
    <glyph glyph-name="guillemotright" unicode="&#xbb;" horiz-adv-x="515" 
d="M371 501l117 -205l-117 -205h-117l116 205l-116 205h117zM144 501l117 -205l-117 -205h-117l116 205l-116 205h117z" />
    <glyph glyph-name="onequarter" unicode="&#xbc;" horiz-adv-x="735" 
d="M673 106h-28v-106h-61v106h-166v54l171 275h56v-272h28v-57zM582 164v149l-93 -149h93zM131 0l388 682h53l-387 -682h-54zM159 245h-63v359h-34v50q31 3 51 27h46v-436z" />
    <glyph glyph-name="onehalf" unicode="&#xbd;" horiz-adv-x="775" 
d="M703 0h-240q1 65 40 137t92 115q21 19 34 35t14 34q0 19 -17.5 36.5t-42.5 17.5q-24 0 -42 -17.5t-18 -42.5h-60q1 48 35 84t85 36q50 0 85 -31.5t35 -80.5q0 -33 -18 -59t-43 -46q-35 -34 -64.5 -75.5t-37.5 -81.5h163v-61zM125 0l388 682h53l-387 -682h-54zM169 245
h-63v359h-34v50q31 3 51 27h46v-436z" />
    <glyph glyph-name="threequarters" unicode="&#xbe;" horiz-adv-x="765" 
d="M698 106h-28v-106h-60v106h-166v54l170 275h56v-272h28v-57zM611 162v149l-93 -149h93zM279 369q0 -52 -34 -87.5t-86 -35.5q-53 0 -86.5 34t-34.5 86h60q3 -26 19.5 -42.5t41.5 -16.5t42.5 18t17.5 44q0 34 -16.5 58t-39.5 24h-17v58h13q23 0 36 17.5t13 44.5
q0 25 -13.5 39t-35.5 14q-20 0 -32.5 -12t-14.5 -32h-60q3 45 33 73t74 28q46 0 77.5 -30t31.5 -79q-1 -65 -43 -92q53 -30 54 -111zM179 0l388 682h53l-387 -682h-54z" />
    <glyph glyph-name="questiondown" unicode="&#xbf;" 
d="M163 628q0 23 16 38.5t38 15.5q21 0 37.5 -16.5t16.5 -37.5t-16.5 -37.5t-37.5 -16.5t-37.5 16.5t-16.5 37.5zM45 168q1 36 15 75.5t38 76.5q23 35 50 90t28 97h86q0 -45 -18 -92.5t-50 -95.5q-35 -54 -48.5 -87t-13.5 -60q-1 -35 20.5 -61.5t61.5 -26.5q33 0 57 22.5
t31 61.5h87q-7 -77 -55 -125t-120 -50q-76 0 -122.5 48.5t-46.5 126.5z" />
    <glyph glyph-name="Agrave" unicode="&#xc0;" horiz-adv-x="465" 
d="M150 799h111l53 -107h-57zM447 0h-97l-47 183h-143l-45 -183h-96l167 670h94zM280 277l-49 193l-47 -193h96z" />
    <glyph glyph-name="Aacute" unicode="&#xc1;" horiz-adv-x="465" 
d="M447 0h-97l-47 183h-143l-45 -183h-96l167 670h94zM280 277l-49 193l-47 -193h96zM207 692h-57l53 107h111z" />
    <glyph glyph-name="Acircumflex" unicode="&#xc2;" horiz-adv-x="465" 
d="M119 698l67 109h90l71 -109h-57l-59 59l-59 -59h-53zM447 0h-97l-47 183h-143l-45 -183h-96l167 670h94zM280 277l-49 193l-47 -193h96z" />
    <glyph glyph-name="Atilde" unicode="&#xc3;" horiz-adv-x="465" 
d="M360 800q-11 -49 -32 -72t-53 -23q-8 0 -15 1t-15 4l-36 10q-9 2 -15 3.5t-11 1.5q-13 0 -21 -7t-14 -23h-43q7 48 28 70.5t52 22.5q8 -1 17 -2t19 -4l37 -10q4 -2 9.5 -3t12.5 -1q13 0 21 8.5t13 23.5h46zM447 0h-97l-47 183h-143l-45 -183h-96l167 670h94zM280 277
l-49 193l-47 -193h96z" />
    <glyph glyph-name="Adieresis" unicode="&#xc4;" horiz-adv-x="465" 
d="M200 768q0 -20 -14.5 -35t-35.5 -15q-19 0 -34 15t-15 35t14.5 34.5t34.5 14.5q21 0 35.5 -14t14.5 -35zM363 768q0 -20 -14.5 -35t-35.5 -15q-19 0 -34 15t-15 35t14.5 34.5t34.5 14.5q21 0 35.5 -14t14.5 -35zM447 0h-97l-47 183h-143l-45 -183h-96l167 670h94z
M280 277l-49 193l-47 -193h96z" />
    <glyph glyph-name="Aring" unicode="&#xc5;" horiz-adv-x="465" 
d="M330 768h-36q1 25 -17.5 43t-44.5 18t-44.5 -17.5t-18.5 -43.5q0 -25 18.5 -43.5t44.5 -18.5t44.5 18.5t17.5 43.5h36q0 -40 -29 -69t-69 -29t-68.5 29t-28.5 69q0 41 28 69t69 28q39 0 68.5 -28.5t29.5 -68.5zM447 0h-97l-47 183h-143l-45 -183h-96l167 670h94zM280 277
l-49 193l-47 -193h96z" />
    <glyph glyph-name="AE" unicode="&#xc6;" horiz-adv-x="755" 
d="M372 277v-94h-147l-81 -183h-102l297 670h348v-94h-219v-169h139v-92h-139v-221h245v-94h-341v516l-103 -239h103z" />
    <glyph glyph-name="Ccedilla" unicode="&#xc7;" horiz-adv-x="455" 
d="M40 334q0 195 58.5 271t141.5 76q72 0 121 -47.5t53 -121.5h-97q-1 34 -23 54.5t-57 20.5q-40 0 -70 -48.5t-30 -204.5q0 -163 30.5 -209t69.5 -44q35 0 57 20.5t23 54.5h97q-4 -74 -53 -121.5t-121 -47.5q-83 0 -141.5 76t-58.5 271zM148 -176v54q30 -9 57 -13.5
t47 -4.5q17 0 25 7.5t8 23.5q0 12 -10.5 18t-35.5 6h-12.5h-8.5v85h44v-32h8q42 0 66 -20t24 -58q0 -43 -26 -65t-75 -22q-22 0 -49.5 5.5t-61.5 15.5z" />
    <glyph glyph-name="Egrave" unicode="&#xc8;" horiz-adv-x="455" 
d="M398 0h-341v670h315v-94h-219v-169h139v-92h-139v-221h245v-94zM146 799h111l53 -107h-57z" />
    <glyph glyph-name="Eacute" unicode="&#xc9;" horiz-adv-x="455" 
d="M203 692h-57l53 107h111zM398 0h-341v670h315v-94h-219v-169h139v-92h-139v-221h245v-94z" />
    <glyph glyph-name="Ecircumflex" unicode="&#xca;" horiz-adv-x="455" 
d="M114 698l67 109h90l71 -109h-57l-59 59l-59 -59h-53zM398 0h-341v670h315v-94h-219v-169h139v-92h-139v-221h245v-94z" />
    <glyph glyph-name="Edieresis" unicode="&#xcb;" horiz-adv-x="455" 
d="M196 768q0 -20 -14.5 -35t-35.5 -15q-19 0 -34 15t-15 35t14.5 34.5t34.5 14.5q21 0 35.5 -14t14.5 -35zM359 768q0 -20 -14.5 -35t-35.5 -15q-19 0 -34 15t-15 35t14.5 34.5t34.5 14.5q21 0 35.5 -14t14.5 -35zM398 0h-341v670h315v-94h-219v-169h139v-92h-139v-221h245
v-94z" />
    <glyph glyph-name="Igrave" unicode="&#xcc;" horiz-adv-x="245" 
d="M169 0h-94v670h94v-670zM41 799h111l53 -107h-57z" />
    <glyph glyph-name="Iacute" unicode="&#xcd;" horiz-adv-x="245" 
d="M98 692h-57l53 107h111zM169 0h-94v670h94v-670z" />
    <glyph glyph-name="Icircumflex" unicode="&#xce;" horiz-adv-x="245" 
d="M9 698l67 109h90l71 -109h-57l-59 59l-59 -59h-53zM169 0h-94v670h94v-670z" />
    <glyph glyph-name="Idieresis" unicode="&#xcf;" horiz-adv-x="245" 
d="M91 768q0 -20 -14.5 -35t-35.5 -15q-19 0 -34 15t-15 35t14.5 34.5t34.5 14.5q21 0 35.5 -14t14.5 -35zM254 768q0 -20 -14.5 -35t-35.5 -15q-19 0 -34 15t-15 35t14.5 34.5t34.5 14.5q21 0 35.5 -14t14.5 -35zM169 0h-94v670h94v-670z" />
    <glyph glyph-name="Eth" unicode="&#xd0;" horiz-adv-x="495" 
d="M461 335q0 -162 -52.5 -248.5t-155.5 -86.5h-166v670h166q103 0 155.5 -86.5t52.5 -248.5zM368 337q0 127 -32.5 183.5t-86.5 56.5h-69v-241v-241h69q54 0 86.5 56.5t32.5 185.5zM241 294h-208v91h208v-91z" />
    <glyph glyph-name="Ntilde" unicode="&#xd1;" horiz-adv-x="465" 
d="M420 0h-93l-187 426v-426h-96v670h96l183 -420v420h97v-670zM360 800q-11 -49 -32 -72t-53 -23q-8 0 -15 1t-15 4l-36 10q-9 2 -15 3.5t-11 1.5q-13 0 -21 -7t-14 -23h-43q7 48 28 70.5t52 22.5q8 -1 17 -2t19 -4l37 -10q4 -2 9.5 -3t12.5 -1q13 0 21 8.5t13 23.5h46z
" />
    <glyph glyph-name="Ograve" unicode="&#xd2;" horiz-adv-x="465" 
d="M232 -12q103 0 151 86.5t48 260.5q0 172 -48 259t-151 87t-151 -87t-48 -259q0 -174 48 -260.5t151 -86.5zM232 82q-55 -1 -79 61t-24 194q0 130 24 190t79 60t79 -60t24 -190q0 -132 -24 -194t-79 -61zM150 799h111l53 -107h-57z" />
    <glyph glyph-name="Oacute" unicode="&#xd3;" horiz-adv-x="465" 
d="M232 -12q-103 0 -151 86.5t-48 260.5q0 172 48 259t151 87t151 -87t48 -259q0 -174 -48 -260.5t-151 -86.5zM232 82q55 -1 79 61t24 194q0 130 -24 190t-79 60t-79 -60t-24 -190q0 -132 24 -194t79 -61zM207 692h-57l53 107h111z" />
    <glyph glyph-name="Ocircumflex" unicode="&#xd4;" horiz-adv-x="465" 
d="M232 -12q103 0 151 86.5t48 260.5q0 172 -48 259t-151 87t-151 -87t-48 -259q0 -174 48 -260.5t151 -86.5zM232 82q-55 -1 -79 61t-24 194q0 130 24 190t79 60t79 -60t24 -190q0 -132 -24 -194t-79 -61zM119 698l67 109h90l71 -109h-57l-59 59l-59 -59h-53z" />
    <glyph glyph-name="Otilde" unicode="&#xd5;" horiz-adv-x="465" 
d="M232 -12q103 0 151 86.5t48 260.5q0 172 -48 259t-151 87t-151 -87t-48 -259q0 -174 48 -260.5t151 -86.5zM232 82q-55 -1 -79 61t-24 194q0 130 24 190t79 60t79 -60t24 -190q0 -132 -24 -194t-79 -61zM360 800q-11 -49 -32 -72t-53 -23q-8 0 -15 1t-15 4l-36 10
q-9 2 -15 3.5t-11 1.5q-13 0 -21 -7t-14 -23h-43q7 48 28 70.5t52 22.5q8 -1 17 -2t19 -4l37 -10q4 -2 9.5 -3t12.5 -1q13 0 21 8.5t13 23.5h46z" />
    <glyph glyph-name="Odieresis" unicode="&#xd6;" horiz-adv-x="465" 
d="M232 -12q103 0 151 86.5t48 260.5q0 172 -48 259t-151 87t-151 -87t-48 -259q0 -174 48 -260.5t151 -86.5zM232 82q-55 -1 -79 61t-24 194q0 130 24 190t79 60t79 -60t24 -190q0 -132 -24 -194t-79 -61zM200 768q0 -20 -14.5 -35t-35.5 -15q-19 0 -34 15t-15 35
t14.5 34.5t34.5 14.5q21 0 35.5 -14t14.5 -35zM363 768q0 -20 -14.5 -35t-35.5 -15q-19 0 -34 15t-15 35t14.5 34.5t34.5 14.5q21 0 35.5 -14t14.5 -35z" />
    <glyph glyph-name="multiply" unicode="&#xd7;" horiz-adv-x="584" 
d="M79 200l153 154l-153 153l60 59l153 -153l153 153l58 -59l-152 -153l153 -153l-59 -60l-153 153l-154 -153z" />
    <glyph glyph-name="Oslash" unicode="&#xd8;" horiz-adv-x="465" 
d="M82 -12h-72l367 693h77zM232 -12q-103 0 -151 86.5t-48 260.5q0 172 48 259t151 87t151 -87t48 -259q0 -174 -48 -260.5t-151 -86.5zM232 82q55 -1 79 61t24 194q0 130 -24 190t-79 60t-79 -60t-24 -190q0 -132 24 -194t79 -61z" />
    <glyph glyph-name="Ugrave" unicode="&#xd9;" horiz-adv-x="455" 
d="M416 200q0 -73 -26 -118q-24 -41 -68.5 -67.5t-91.5 -26.5q-49 0 -94.5 26t-69.5 68q-26 46 -26 118v470h96v-482q0 -48 26 -77t68 -29q39 0 64 29.5t25 76.5v482h97v-470zM146 799h111l53 -107h-57z" />
    <glyph glyph-name="Uacute" unicode="&#xda;" horiz-adv-x="455" 
d="M416 200q0 -73 -26 -118q-24 -41 -68.5 -67.5t-91.5 -26.5q-49 0 -94.5 26t-69.5 68q-26 46 -26 118v470h96v-482q0 -48 26 -77t68 -29q39 0 64 29.5t25 76.5v482h97v-470zM203 692h-57l53 107h111z" />
    <glyph glyph-name="Ucircumflex" unicode="&#xdb;" horiz-adv-x="455" 
d="M416 200q0 -73 -26 -118q-24 -41 -68.5 -67.5t-91.5 -26.5q-49 0 -94.5 26t-69.5 68q-26 46 -26 118v470h96v-482q0 -48 26 -77t68 -29q39 0 64 29.5t25 76.5v482h97v-470zM114 698l67 109h90l71 -109h-57l-59 59l-59 -59h-53z" />
    <glyph glyph-name="Udieresis" unicode="&#xdc;" horiz-adv-x="455" 
d="M416 200q0 -73 -26 -118q-24 -41 -68.5 -67.5t-91.5 -26.5q-49 0 -94.5 26t-69.5 68q-26 46 -26 118v470h96v-482q0 -48 26 -77t68 -29q39 0 64 29.5t25 76.5v482h97v-470zM196 768q0 -20 -14.5 -35t-35.5 -15q-19 0 -34 15t-15 35t14.5 34.5t34.5 14.5q21 0 35.5 -14
t14.5 -35zM359 768q0 -20 -14.5 -35t-35.5 -15q-19 0 -34 15t-15 35t14.5 34.5t34.5 14.5q21 0 35.5 -14t14.5 -35z" />
    <glyph glyph-name="Yacute" unicode="&#xdd;" horiz-adv-x="455" 
d="M442 670l-167 -367v-303h-96v303l-165 367h101l113 -242l110 242h104zM203 692h-57l53 107h111z" />
    <glyph glyph-name="Thorn" unicode="&#xde;" horiz-adv-x="475" 
d="M331 352q0 38 -24 60t-63 22h-99v-165h99q36 0 61.5 24t25.5 59zM237 173h-92v-173h-95v670h95v-142h104q79 0 127.5 -49t48.5 -130q-1 -72 -47.5 -124t-140.5 -52z" />
    <glyph glyph-name="germandbls" unicode="&#xdf;" horiz-adv-x="445" 
d="M399 181q0 -83 -52.5 -138t-133.5 -55h-19v94h19q40 0 67 28.5t27 70.5q0 53 -26.5 92t-60.5 37h-26v94h20q36 1 56 28.5t20 70.5q0 39 -21 61.5t-56 22.5q-30 0 -50.5 -19t-22.5 -63v-614l-93 -46v657q1 87 50 133t116 46q72 0 120.5 -49.5t48.5 -127.5
q-1 -103 -66 -146q82 -49 83 -177z" />
    <glyph glyph-name="agrave" unicode="&#xe0;" 
d="M135 635h111l53 -107h-57zM376 0h-89v21q-21 -28 -77 -30q-70 0 -111 39t-41 123q0 83 42 130t105 47q43 1 82 -19q3 100 -71 102q-53 -2 -89 -40l-57 57q68 70 150 71q156 0 156 -186v-315zM283 121v101q-30 20 -68 20q-28 0 -47.5 -19.5t-19.5 -64.5q0 -44 17.5 -64
t49.5 -20q48 0 68 47z" />
    <glyph glyph-name="aacute" unicode="&#xe1;" 
d="M376 0h-89v21q-21 -28 -77 -30q-70 0 -111 39t-41 123q0 83 42 130t105 47q43 1 82 -19q3 100 -71 102q-53 -2 -89 -40l-57 57q68 70 150 71q156 0 156 -186v-315zM192 528h-57l53 107h111zM283 121v101q-30 20 -68 20q-28 0 -47.5 -19.5t-19.5 -64.5q0 -44 17.5 -64
t49.5 -20q48 0 68 47z" />
    <glyph glyph-name="acircumflex" unicode="&#xe2;" 
d="M103 531l67 109h90l71 -109h-57l-59 59l-59 -59h-53zM376 0h-89v21q-21 -28 -77 -30q-70 0 -111 39t-41 123q0 83 42 130t105 47q43 1 82 -19q3 100 -71 102q-53 -2 -89 -40l-57 57q68 70 150 71q156 0 156 -186v-315zM283 121v101q-30 20 -68 20q-28 0 -47.5 -19.5
t-19.5 -64.5q0 -44 17.5 -64t49.5 -20q48 0 68 47z" />
    <glyph glyph-name="atilde" unicode="&#xe3;" 
d="M345 625q-11 -49 -32 -72t-53 -23q-8 0 -15 1t-15 4l-36 10q-9 2 -15 3.5t-11 1.5q-13 0 -21 -7t-14 -23h-43q7 48 28 70.5t52 22.5q8 -1 17 -2t19 -4l37 -10q4 -2 9.5 -3t12.5 -1q13 0 21 8.5t13 23.5h46zM376 0h-89v21q-21 -28 -77 -30q-70 0 -111 39t-41 123
q0 83 42 130t105 47q43 1 82 -19q3 100 -71 102q-53 -2 -89 -40l-57 57q68 70 150 71q156 0 156 -186v-315zM283 121v101q-30 20 -68 20q-28 0 -47.5 -19.5t-19.5 -64.5q0 -44 17.5 -64t49.5 -20q48 0 68 47z" />
    <glyph glyph-name="adieresis" unicode="&#xe4;" 
d="M185 576q0 -20 -14.5 -35t-35.5 -15q-19 0 -34 15t-15 35t14.5 34.5t34.5 14.5q21 0 35.5 -14t14.5 -35zM348 576q0 -20 -14.5 -35t-35.5 -15q-19 0 -34 15t-15 35t14.5 34.5t34.5 14.5q21 0 35.5 -14t14.5 -35zM376 0h-89v21q-21 -28 -77 -30q-70 0 -111 39t-41 123
q0 83 42 130t105 47q43 1 82 -19q3 100 -71 102q-53 -2 -89 -40l-57 57q68 70 150 71q156 0 156 -186v-315zM283 121v101q-30 20 -68 20q-28 0 -47.5 -19.5t-19.5 -64.5q0 -44 17.5 -64t49.5 -20q48 0 68 47z" />
    <glyph glyph-name="aring" unicode="&#xe5;" 
d="M315 619h-36q1 25 -17.5 43t-44.5 18t-44.5 -17.5t-18.5 -43.5q0 -25 18.5 -43.5t44.5 -18.5t44.5 18.5t17.5 43.5h36q0 -40 -29 -69t-69 -29t-68.5 29t-28.5 69q0 41 28 69t69 28q39 0 68.5 -28.5t29.5 -68.5zM376 0h-89v21q-21 -28 -77 -30q-70 0 -111 39t-41 123
q0 83 42 130t105 47q43 1 82 -19q3 100 -71 102q-53 -2 -89 -40l-57 57q68 70 150 71q156 0 156 -186v-315zM283 121v101q-30 20 -68 20q-28 0 -47.5 -19.5t-19.5 -64.5q0 -44 17.5 -64t49.5 -20q48 0 68 47z" />
    <glyph glyph-name="ae" unicode="&#xe6;" horiz-adv-x="655" 
d="M362 143q-3 -61 -47 -106.5t-119 -45.5q-70 0 -111 39t-41 123q0 83 42 130t105 47q43 1 82 -19q3 100 -71 102q-53 -2 -89 -40l-57 57q68 70 150 71q156 0 156 -186v-172zM269 121v101q-30 20 -68 20q-28 0 -47.5 -19.5t-19.5 -64.5q0 -44 17.5 -64t49.5 -20q48 0 68 47
zM607 207h-244q1 -69 26.5 -98.5t57.5 -27.5q38 -2 69 46l58 -58q-52 -78 -130 -78q-85 0 -129 63.5t-46 192.5q0 103 42 178.5t127 75.5q84 0 128.5 -82.5t40.5 -211.5zM513 291q1 54 -18 88.5t-57 34.5q-36 0 -56.5 -30.5t-20.5 -92.5h152z" />
    <glyph glyph-name="ccedilla" unicode="&#xe7;" horiz-adv-x="395" 
d="M291 360q-29 45 -74 47q-38 1 -60.5 -40.5t-22.5 -121.5q1 -100 27.5 -132.5t57.5 -30.5q38 -1 72 45l61 -61q-55 -75 -133 -75q-85 0 -129 63.5t-46 192.5q0 103 42 178.5t127 75.5q93 -1 137 -82zM123 -176v54q30 -9 57 -13.5t47 -4.5q17 0 25 7.5t8 23.5
q0 12 -10.5 18t-35.5 6h-12.5h-8.5v85h44v-32h8q42 0 66 -20t24 -58q0 -43 -26 -65t-75 -22q-22 0 -49.5 5.5t-61.5 15.5z" />
    <glyph glyph-name="egrave" unicode="&#xe8;" 
d="M385 207h-244q1 -69 26.5 -98.5t57.5 -27.5q38 -2 69 46l58 -58q-52 -78 -130 -78q-85 0 -129 63.5t-46 192.5q1 107 42 180.5t127 73.5q84 0 128.5 -82.5t40.5 -211.5zM291 291q1 54 -18 88.5t-57 34.5q-36 0 -56.5 -30.5t-20.5 -92.5h152zM135 635h111l53 -107h-57z
" />
    <glyph glyph-name="eacute" unicode="&#xe9;" 
d="M385 207h-244q1 -69 26.5 -98.5t57.5 -27.5q38 -2 69 46l58 -58q-52 -78 -130 -78q-85 0 -129 63.5t-46 192.5q1 107 42 180.5t127 73.5q84 0 128.5 -82.5t40.5 -211.5zM291 291q1 54 -18 88.5t-57 34.5q-36 0 -56.5 -30.5t-20.5 -92.5h152zM192 528h-57l53 107h111z" />
    <glyph glyph-name="ecircumflex" unicode="&#xea;" 
d="M385 207h-244q1 -69 26.5 -98.5t57.5 -27.5q38 -2 69 46l58 -58q-52 -78 -130 -78q-85 0 -129 63.5t-46 192.5q1 107 42 180.5t127 73.5q84 0 128.5 -82.5t40.5 -211.5zM291 291q1 54 -18 88.5t-57 34.5q-36 0 -56.5 -30.5t-20.5 -92.5h152zM103 531l67 109h90l71 -109
h-57l-59 59l-59 -59h-53z" />
    <glyph glyph-name="edieresis" unicode="&#xeb;" 
d="M385 207h-244q1 -69 26.5 -98.5t57.5 -27.5q38 -2 69 46l58 -58q-52 -78 -130 -78q-85 0 -129 63.5t-46 192.5q1 107 42 180.5t127 73.5q84 0 128.5 -82.5t40.5 -211.5zM291 291q1 54 -18 88.5t-57 34.5q-36 0 -56.5 -30.5t-20.5 -92.5h152zM185 576q0 -20 -14.5 -35
t-35.5 -15q-19 0 -34 15t-15 35t14.5 34.5t34.5 14.5q21 0 35.5 -14t14.5 -35zM348 576q0 -20 -14.5 -35t-35.5 -15q-19 0 -34 15t-15 35t14.5 34.5t34.5 14.5q21 0 35.5 -14t14.5 -35z" />
    <glyph glyph-name="igrave" unicode="&#xec;" horiz-adv-x="215" 
d="M26 635h111l53 -107h-57zM59 0v498h96v-498h-96z" />
    <glyph glyph-name="iacute" unicode="&#xed;" horiz-adv-x="215" 
d="M83 528h-57l53 107h111zM59 0v498h96v-498h-96z" />
    <glyph glyph-name="icircumflex" unicode="&#xee;" horiz-adv-x="215" 
d="M-6 531l67 109h90l71 -109h-57l-59 59l-59 -59h-53zM59 0v498h96v-498h-96z" />
    <glyph glyph-name="idieresis" unicode="&#xef;" horiz-adv-x="215" 
d="M76 576q0 -20 -14.5 -35t-35.5 -15q-19 0 -34 15t-15 35t14.5 34.5t34.5 14.5q21 0 35.5 -14t14.5 -35zM239 576q0 -20 -14.5 -35t-35.5 -15q-19 0 -34 15t-15 35t14.5 34.5t34.5 14.5q21 0 35.5 -14t14.5 -35zM59 0v498h96v-498h-96z" />
    <glyph glyph-name="eth" unicode="&#xf0;" 
d="M386 223q0 -106 -42 -169t-127 -63q-82 0 -125 60t-44 172q1 115 45 173.5t100 57.5q22 0 38 -10q-34 81 -137 164l51 73q237 -156 241 -458zM292 224q0 70 -21 102t-54 32q-36 0 -54.5 -31.5t-19.5 -105.5q1 -74 19.5 -107t54.5 -33q38 0 56 34.5t19 108.5zM49 503
l300 150l32 -64l-301 -149z" />
    <glyph glyph-name="ntilde" unicode="&#xf1;" 
d="M387 0h-94v336q0 35 -20.5 57t-53.5 22q-31 0 -53.5 -21.5t-22.5 -57.5v-336h-94v498h92v-30q39 35 89 35q67 0 112 -44t45 -123v-336zM345 625q-11 -49 -32 -72t-53 -23q-8 0 -15 1t-15 4l-36 10q-9 2 -15 3.5t-11 1.5q-13 0 -21 -7t-14 -23h-43q7 48 28 70.5t52 22.5
q8 -1 17 -2t19 -4l37 -10q4 -2 9.5 -3t12.5 -1q13 0 21 8.5t13 23.5h46z" />
    <glyph glyph-name="ograve" unicode="&#xf2;" 
d="M386 247q0 -117 -42 -186.5t-127 -69.5q-82 0 -125 66t-44 190q1 126 45 190t124 64q84 0 126.5 -63.5t42.5 -190.5zM296 249q-2 88 -23 125.5t-56 36.5q-36 0 -56.5 -37.5t-20.5 -128.5q1 -89 20.5 -129t56.5 -38q40 0 58.5 41.5t20.5 129.5zM135 635h111l53 -107h-57z
" />
    <glyph glyph-name="oacute" unicode="&#xf3;" 
d="M386 247q0 -117 -42 -186.5t-127 -69.5q-82 0 -125 66t-44 190q1 126 45 190t124 64q84 0 126.5 -63.5t42.5 -190.5zM296 249q-2 88 -23 125.5t-56 36.5q-36 0 -56.5 -37.5t-20.5 -128.5q1 -89 20.5 -129t56.5 -38q40 0 58.5 41.5t20.5 129.5zM192 528h-57l53 107h111z
" />
    <glyph glyph-name="ocircumflex" unicode="&#xf4;" 
d="M386 247q0 -117 -42 -186.5t-127 -69.5q-82 0 -125 66t-44 190q1 126 45 190t124 64q84 0 126.5 -63.5t42.5 -190.5zM296 249q-2 88 -23 125.5t-56 36.5q-36 0 -56.5 -37.5t-20.5 -128.5q1 -89 20.5 -129t56.5 -38q40 0 58.5 41.5t20.5 129.5zM103 531l67 109h90l71 -109
h-57l-59 59l-59 -59h-53z" />
    <glyph glyph-name="otilde" unicode="&#xf5;" 
d="M386 247q0 -117 -42 -186.5t-127 -69.5q-82 0 -125 66t-44 190q1 126 45 190t124 64q84 0 126.5 -63.5t42.5 -190.5zM296 249q-2 88 -23 125.5t-56 36.5q-36 0 -56.5 -37.5t-20.5 -128.5q1 -89 20.5 -129t56.5 -38q40 0 58.5 41.5t20.5 129.5zM345 625q-11 -49 -32 -72
t-53 -23q-8 0 -15 1t-15 4l-36 10q-9 2 -15 3.5t-11 1.5q-13 0 -21 -7t-14 -23h-43q7 48 28 70.5t52 22.5q8 -1 17 -2t19 -4l37 -10q4 -2 9.5 -3t12.5 -1q13 0 21 8.5t13 23.5h46z" />
    <glyph glyph-name="odieresis" unicode="&#xf6;" 
d="M386 247q0 -117 -42 -186.5t-127 -69.5q-82 0 -125 66t-44 190q1 126 45 190t124 64q84 0 126.5 -63.5t42.5 -190.5zM296 249q-2 88 -23 125.5t-56 36.5q-36 0 -56.5 -37.5t-20.5 -128.5q1 -89 20.5 -129t56.5 -38q40 0 58.5 41.5t20.5 129.5zM185 576q0 -20 -14.5 -35
t-35.5 -15q-19 0 -34 15t-15 35t14.5 34.5t34.5 14.5q21 0 35.5 -14t14.5 -35zM348 576q0 -20 -14.5 -35t-35.5 -15q-19 0 -34 15t-15 35t14.5 34.5t34.5 14.5q21 0 35.5 -14t14.5 -35z" />
    <glyph glyph-name="divide" unicode="&#xf7;" horiz-adv-x="575" 
d="M288 284q22 0 39.5 -17t17.5 -41t-17.5 -41t-39.5 -17q-25 0 -42 17t-17 41t17 41t42 17zM58 415h460v-76h-460v76zM288 584q22 0 39.5 -16.5t17.5 -40.5t-17.5 -41t-39.5 -17q-25 0 -42 17t-17 41t17 40.5t42 16.5z" />
    <glyph glyph-name="oslash" unicode="&#xf8;" 
d="M403 501l-285 -510h-86l284 510h87zM386 247q0 -117 -42 -186.5t-127 -69.5q-82 0 -125 66t-44 190q1 126 45 190t124 64q84 0 126.5 -63.5t42.5 -190.5zM296 249q-2 88 -23 125.5t-56 36.5q-36 0 -56.5 -37.5t-20.5 -128.5q1 -89 20.5 -129t56.5 -38q40 0 58.5 41.5
t20.5 129.5z" />
    <glyph glyph-name="ugrave" unicode="&#xf9;" 
d="M48 498h94v-336q0 -35 20.5 -57t53.5 -22q31 0 53.5 21.5t22.5 57.5v336h94v-498h-92v30q-39 -35 -89 -35q-67 0 -112 44t-45 123v336zM135 635h111l53 -107h-57z" />
    <glyph glyph-name="uacute" unicode="&#xfa;" 
d="M48 498h94v-336q0 -35 20.5 -57t53.5 -22q31 0 53.5 21.5t22.5 57.5v336h94v-498h-92v30q-39 -35 -89 -35q-67 0 -112 44t-45 123v336zM192 528h-57l53 107h111z" />
    <glyph glyph-name="ucircumflex" unicode="&#xfb;" 
d="M48 498h94v-336q0 -35 20.5 -57t53.5 -22q31 0 53.5 21.5t22.5 57.5v336h94v-498h-92v30q-39 -35 -89 -35q-67 0 -112 44t-45 123v336zM103 531l67 109h90l71 -109h-57l-59 59l-59 -59h-53z" />
    <glyph glyph-name="udieresis" unicode="&#xfc;" 
d="M48 498h94v-336q0 -35 20.5 -57t53.5 -22q31 0 53.5 21.5t22.5 57.5v336h94v-498h-92v30q-39 -35 -89 -35q-67 0 -112 44t-45 123v336zM348 576q0 -20 -14.5 -35t-35.5 -15q-19 0 -34 15t-15 35t14.5 34.5t34.5 14.5q21 0 35.5 -14t14.5 -35zM185 576q0 -20 -14.5 -35
t-35.5 -15q-19 0 -34 15t-15 35t14.5 34.5t34.5 14.5q21 0 35.5 -14t14.5 -35z" />
    <glyph glyph-name="yacute" unicode="&#xfd;" 
d="M423 489l-237 -731h-100l78 259l-153 472h102l104 -303l105 303h101zM192 528h-57l53 107h111z" />
    <glyph glyph-name="thorn" unicode="&#xfe;" 
d="M142 681v-213q37 33 87 33q160 0 160 -254q0 -256 -172 -259q-45 0 -75 28v-210l-96 -48v874zM145 131q20 -53 72 -53q76 -1 78 169q0 164 -75 164q-51 1 -75 -49v-231z" />
    <glyph glyph-name="ydieresis" unicode="&#xff;" 
d="M423 489l-237 -731h-100l78 259l-153 472h102l104 -303l105 303h101zM185 576q0 -20 -14.5 -35t-35.5 -15q-19 0 -34 15t-15 35t14.5 34.5t34.5 14.5q21 0 35.5 -14t14.5 -35zM348 576q0 -20 -14.5 -35t-35.5 -15q-19 0 -34 15t-15 35t14.5 34.5t34.5 14.5q21 0 35.5 -14
t14.5 -35z" />
    <glyph glyph-name="OE" unicode="&#x152;" horiz-adv-x="725" 
d="M240 -12q-103 0 -151 86.5t-48 260.5q0 172 48 259t151 87t151 -87t48 -259q0 -174 -48 -260.5t-151 -86.5zM240 82q55 -1 79 61t24 194q0 130 -24 190t-79 60t-79 -60t-24 -190q0 -132 24 -194t79 -61zM343 0v670h315v-94h-219v-169h139v-92h-139v-221h245v-94h-341z
" />
    <glyph glyph-name="oe" unicode="&#x153;" horiz-adv-x="655" 
d="M370 247q0 -117 -42 -186.5t-127 -69.5q-82 0 -125 66t-44 190q1 126 45 190t124 64q84 0 126.5 -63.5t42.5 -190.5zM280 249q-2 88 -21.5 125.5t-57.5 36.5q-36 0 -56.5 -37.5t-20.5 -128.5q1 -89 20.5 -129t56.5 -38q40 0 58.5 41.5t20.5 129.5zM618 207h-244
q1 -69 26.5 -98.5t57.5 -27.5q38 -2 69 46l58 -58q-52 -78 -130 -78q-85 0 -129 63.5t-46 192.5q0 103 42 178.5t127 75.5q84 0 128.5 -82.5t40.5 -211.5zM524 291q1 54 -18 88.5t-57 34.5q-36 0 -56.5 -30.5t-20.5 -92.5h152z" />
    <glyph glyph-name="Scaron" unicode="&#x160;" horiz-adv-x="455" 
d="M413 188q0 -79 -49 -139.5t-135 -60.5q-79 0 -133.5 61.5t-54.5 147.5h92q0 -53 26.5 -84t67.5 -31q38 0 66 30.5t27 71.5q-1 33 -24.5 69.5t-86.5 76.5q-72 46 -105 91.5t-33 85.5q-1 72 46 122.5t120 51.5q77 0 126.5 -50.5t49.5 -122.5h-98q1 39 -24.5 61t-53.5 20
q-33 -2 -51 -24.5t-17 -54.5q1 -21 18 -41t74 -60q80 -54 115.5 -106t36.5 -115zM166 808l59 -59l59 59h57l-71 -109h-90l-67 109h53z" />
    <glyph glyph-name="scaron" unicode="&#x161;" horiz-adv-x="335" 
d="M106 640l59 -59l59 59h57l-71 -109h-90l-67 109h53zM311 133q-2 -58 -42 -100t-100 -42q-90 1 -146 87l62 62q41 -60 85 -60q22 -1 38.5 15t15.5 38q1 25 -23 52t-68 53q-47 27 -71 58.5t-24 79.5q-1 50 35.5 87.5t88.5 37.5q83 -2 139 -80l-56 -56q-35 48 -84 49
q-15 0 -24 -10t-10 -25q1 -18 12.5 -32.5t51.5 -38.5q74 -49 97 -89.5t23 -85.5z" />
    <glyph glyph-name="Ydieresis" unicode="&#x178;" horiz-adv-x="455" 
d="M196 768q0 -20 -14.5 -35t-35.5 -15q-19 0 -34 15t-15 35t14.5 34.5t34.5 14.5q21 0 35.5 -14t14.5 -35zM359 768q0 -20 -14.5 -35t-35.5 -15q-19 0 -34 15t-15 35t14.5 34.5t34.5 14.5q21 0 35.5 -14t14.5 -35zM442 670l-167 -367v-303h-96v303l-165 367h101l113 -242
l110 242h104z" />
    <glyph glyph-name="Zcaron" unicode="&#x17d;" horiz-adv-x="455" 
d="M166 808l59 -59l59 59h57l-71 -109h-90l-67 109h53zM412 0h-369v90l259 488h-233v94h343v-91l-263 -489h263v-92z" />
    <glyph glyph-name="zcaron" unicode="&#x17e;" horiz-adv-x="335" 
d="M307 404l-175 -315h175v-89h-280v75l179 324h-162v90h263v-85zM106 640l59 -59l59 59h57l-71 -109h-90l-67 109h53z" />
    <glyph glyph-name="florin" unicode="&#x192;" horiz-adv-x="255" 
d="M231 399h-59v-594l-94 -47v641h-54v90h54v84q0 48 22 78t63 30q39 0 68 -22v-74q-12 7 -29 7q-30 0 -30 -33v-70h59v-90z" />
    <glyph glyph-name="circumflex" unicode="&#x2c6;" horiz-adv-x="275" 
d="M23 561l67 109h90l71 -109h-57l-59 59l-59 -59h-53z" />
    <glyph glyph-name="tilde" unicode="&#x2dc;" horiz-adv-x="325" 
d="M290 670q-11 -49 -32 -72t-53 -23q-8 0 -15 1t-15 4l-36 10q-9 2 -15 3.5t-11 1.5q-13 0 -21 -7t-14 -23h-43q7 48 28 70.5t52 22.5q8 -1 17 -2t19 -4l37 -10q4 -2 9.5 -3t12.5 -1q13 0 21 8.5t13 23.5h46z" />
    <glyph glyph-name="endash" unicode="&#x2013;" horiz-adv-x="525" 
d="M494 294h-464v91h464v-91z" />
    <glyph glyph-name="emdash" unicode="&#x2014;" horiz-adv-x="1035" 
d="M1001 294h-968v91h968v-91z" />
    <glyph glyph-name="quoteleft" unicode="&#x2018;" horiz-adv-x="205" 
d="M48 532q0 55 26 90t77 48v-16q-48 -28 -55 -68h6q21 0 37.5 -16.5t16.5 -37.5t-16.5 -37.5t-37.5 -16.5t-37.5 16.5t-16.5 37.5z" />
    <glyph glyph-name="quoteright" unicode="&#x2019;" horiz-adv-x="205" 
d="M156 616q0 -55 -26 -90t-77 -48v16q48 28 55 68h-6q-21 0 -37.5 16.5t-16.5 37.5t16.5 37.5t37.5 16.5t37.5 -16.5t16.5 -37.5z" />
    <glyph glyph-name="quotedblleft" unicode="&#x201c;" horiz-adv-x="395" 
d="M54 532q0 55 26 90t77 48v-16q-48 -28 -55 -68h6q21 0 37.5 -16.5t16.5 -37.5t-16.5 -37.5t-37.5 -16.5t-37.5 16.5t-16.5 37.5zM232 532q0 55 26 90t77 48v-16q-48 -28 -55 -68h6q21 0 37.5 -16.5t16.5 -37.5t-16.5 -37.5t-37.5 -16.5t-37.5 16.5t-16.5 37.5z" />
    <glyph glyph-name="quotedblright" unicode="&#x201d;" horiz-adv-x="395" 
d="M340 616q0 -55 -26 -90t-77 -48v16q48 28 55 68h-6q-21 0 -37.5 16.5t-16.5 37.5t16.5 37.5t37.5 16.5t37.5 -16.5t16.5 -37.5zM162 616q0 -55 -26 -90t-77 -48v16q48 28 55 68h-6q-21 0 -37.5 16.5t-16.5 37.5t16.5 37.5t37.5 16.5t37.5 -16.5t16.5 -37.5z" />
    <glyph glyph-name="quotedblbase" unicode="&#x201e;" horiz-adv-x="395" 
d="M340 47q0 -55 -26 -90t-77 -48v16q48 28 55 68h-6q-21 0 -37.5 16.5t-16.5 37.5t16.5 37.5t37.5 16.5t37.5 -16.5t16.5 -37.5zM162 47q0 -55 -26 -90t-77 -48v16q48 28 55 68h-6q-21 0 -37.5 16.5t-16.5 37.5t16.5 37.5t37.5 16.5t37.5 -16.5t16.5 -37.5z" />
    <glyph glyph-name="dagger" unicode="&#x2020;" horiz-adv-x="455" 
d="M245 445v-553h-39v553h-168v45h168v201h39v-201h171v-45h-171z" />
    <glyph glyph-name="daggerdbl" unicode="&#x2021;" horiz-adv-x="455" 
d="M245 445v-303h171v-46h-171v-204h-39v204h-168v45h168v304h-168v45h168v201h39v-201h171v-45h-171z" />
    <glyph glyph-name="bullet" unicode="&#x2022;" horiz-adv-x="625" 
d="M565 303q0 -107 -73.5 -180t-179.5 -73q-105 0 -178.5 74t-73.5 179q0 106 73 179t179 73q105 0 179 -73t74 -179z" />
    <glyph glyph-name="ellipsis" unicode="&#x2026;" horiz-adv-x="655" 
d="M381 47q0 -23 -16 -38.5t-38 -15.5q-21 0 -37.5 16.5t-16.5 37.5t16.5 37.5t37.5 16.5t37.5 -16.5t16.5 -37.5zM606 47q0 -23 -16 -38.5t-38 -15.5q-21 0 -37.5 16.5t-16.5 37.5t16.5 37.5t37.5 16.5t37.5 -16.5t16.5 -37.5zM157 47q0 -23 -16 -38.5t-38 -15.5
q-21 0 -37.5 16.5t-16.5 37.5t16.5 37.5t37.5 16.5t37.5 -16.5t16.5 -37.5z" />
    <glyph glyph-name="perthousand" unicode="&#x2030;" horiz-adv-x="705" 
d="M675 98h-36q1 25 -17.5 43t-44.5 18t-44.5 -17.5t-18.5 -43.5q0 -25 18.5 -43.5t44.5 -18.5t44.5 18.5t17.5 43.5h36q0 -40 -29 -69t-69 -29t-68.5 29t-28.5 69q0 41 28 69t69 28q39 0 68.5 -28.5t29.5 -68.5zM238 573h-36q1 25 -17.5 43t-44.5 18t-44.5 -17.5
t-18.5 -43.5q0 -25 18.5 -43.5t44.5 -18.5t44.5 18.5t17.5 43.5h36q0 -40 -29 -69t-69 -29t-68.5 29t-28.5 69q0 41 28 69t69 28q39 0 68.5 -28.5t29.5 -68.5zM456 670l-383 -670h-44l384 670h43zM439 98h-36q1 25 -17.5 43t-44.5 18t-44.5 -17.5t-18.5 -43.5
q0 -25 18.5 -43.5t44.5 -18.5t44.5 18.5t17.5 43.5h36q0 -40 -29 -69t-69 -29t-68.5 29t-28.5 69q0 41 28 69t69 28q39 0 68.5 -28.5t29.5 -68.5z" />
    <glyph glyph-name="guilsinglleft" unicode="&#x2039;" horiz-adv-x="275" 
d="M255 501l-116 -205l116 -205h-117l-117 205l117 205h117z" />
    <glyph glyph-name="guilsinglright" unicode="&#x203a;" horiz-adv-x="275" 
d="M138 501l117 -205l-117 -205h-117l116 205l-116 205h117z" />
    <glyph glyph-name="Euro" unicode="&#x20ac;" horiz-adv-x="465" 
d="M304 366h-272v50h272v-50zM304 256h-272v50h272v-50zM59 334q0 195 58.5 271t141.5 76q72 0 121 -47.5t53 -121.5h-97q-1 34 -23 54.5t-57 20.5q-40 0 -70 -48.5t-30 -204.5q0 -163 30.5 -209t69.5 -44q35 0 57 20.5t23 54.5h97q-4 -74 -53 -121.5t-121 -47.5
q-83 0 -141.5 76t-58.5 271z" />
    <glyph glyph-name="trademark" unicode="&#x2122;" horiz-adv-x="735" 
d="M292 602h-94v-277h-67v277h-94v68h255v-68zM697 325h-72v187l-96 -187l-99 187v-187h-71v345h71l99 -189l96 189h72v-345z" />
    <glyph glyph-name="NULL" horiz-adv-x="0" 
 />
  </font>
</defs>
</svg>
